G04*
G04 #@! TF.GenerationSoftware,Altium Limited,Altium Designer,21.0.8 (223)*
G04*
G04 Layer_Color=128*
%FSLAX44Y44*%
%MOMM*%
G71*
G04*
G04 #@! TF.SameCoordinates,2EEA6137-B325-4497-8457-BD4E04CF0BC7*
G04*
G04*
G04 #@! TF.FilePolarity,Positive*
G04*
G01*
G75*
%ADD16R,0.9000X0.9500*%
%ADD20R,0.9500X0.9000*%
%ADD59R,1.3000X1.9000*%
%ADD60R,3.0000X2.6000*%
D16*
X329000Y322500D02*
D03*
Y308000D02*
D03*
X316000Y307500D02*
D03*
Y322000D02*
D03*
X172000Y208750D02*
D03*
Y223250D02*
D03*
X425000Y239250D02*
D03*
Y224750D02*
D03*
X366000Y281500D02*
D03*
Y296000D02*
D03*
D20*
X18750Y210000D02*
D03*
X33250D02*
D03*
Y223000D02*
D03*
X18750D02*
D03*
X208250Y169000D02*
D03*
X193750D02*
D03*
X207797Y197000D02*
D03*
X193297D02*
D03*
X300250Y342000D02*
D03*
X285750D02*
D03*
X300250Y356000D02*
D03*
X285750D02*
D03*
X347750Y346000D02*
D03*
X362250D02*
D03*
X39250Y168000D02*
D03*
X24750D02*
D03*
X41750Y338000D02*
D03*
X56250D02*
D03*
X112750Y165000D02*
D03*
X127250D02*
D03*
D59*
X400500Y307250D02*
D03*
X456750D02*
D03*
Y341750D02*
D03*
X400500Y341750D02*
D03*
D60*
X393000Y252000D02*
D03*
Y185000D02*
D03*
M02*
