G04*
G04 #@! TF.GenerationSoftware,Altium Limited,Altium Designer,21.0.8 (223)*
G04*
G04 Layer_Color=16711935*
%FSLAX44Y44*%
%MOMM*%
G71*
G04*
G04 #@! TF.SameCoordinates,2EEA6137-B325-4497-8457-BD4E04CF0BC7*
G04*
G04*
G04 #@! TF.FilePolarity,Negative*
G04*
G01*
G75*
%ADD30R,1.1032X1.1532*%
%ADD33R,1.1532X1.1032*%
%ADD35C,2.2032*%
%ADD36C,1.8032*%
%ADD37C,2.7032*%
%ADD38C,1.6032*%
%ADD39R,1.6032X1.6032*%
%ADD40C,2.3032*%
%ADD41R,4.2032X4.2032*%
%ADD42C,3.2032*%
%ADD43C,6.2032*%
%ADD63R,1.5032X2.1032*%
%ADD64R,3.2032X2.8032*%
D30*
X329000Y322500D02*
D03*
Y308000D02*
D03*
X316000Y307500D02*
D03*
Y322000D02*
D03*
X172000Y208750D02*
D03*
Y223250D02*
D03*
X425000Y239250D02*
D03*
Y224750D02*
D03*
X366000Y281500D02*
D03*
Y296000D02*
D03*
D33*
X18750Y210000D02*
D03*
X33250D02*
D03*
Y223000D02*
D03*
X18750D02*
D03*
X208250Y169000D02*
D03*
X193750D02*
D03*
X207797Y197000D02*
D03*
X193297D02*
D03*
X300250Y342000D02*
D03*
X285750D02*
D03*
X300250Y356000D02*
D03*
X285750D02*
D03*
X347750Y346000D02*
D03*
X362250D02*
D03*
X39250Y168000D02*
D03*
X24750D02*
D03*
X41750Y338000D02*
D03*
X56250D02*
D03*
X112750Y165000D02*
D03*
X127250D02*
D03*
D35*
X266600Y441000D02*
D03*
X292000D02*
D03*
X317400D02*
D03*
X342800D02*
D03*
X368200D02*
D03*
D36*
X610000Y-43000D02*
D03*
X609750Y109250D02*
D03*
X330000Y-43000D02*
D03*
Y33000D02*
D03*
X-175918Y257496D02*
D03*
Y232096D02*
D03*
Y131004D02*
D03*
Y156404D02*
D03*
D37*
X581000Y218000D02*
D03*
Y418000D02*
D03*
D38*
X-38021Y200600D02*
D03*
Y226000D02*
D03*
Y175200D02*
D03*
Y149800D02*
D03*
X-63421Y213300D02*
D03*
Y187900D02*
D03*
Y162500D02*
D03*
D39*
Y238700D02*
D03*
D40*
X-96416Y273000D02*
D03*
Y115500D02*
D03*
D41*
X805000Y228000D02*
D03*
Y141000D02*
D03*
D42*
X697000Y-63000D02*
D03*
Y161000D02*
D03*
D43*
X814458Y329472D02*
D03*
Y49472D02*
D03*
X-140542Y329472D02*
D03*
Y49472D02*
D03*
D63*
X400500Y307250D02*
D03*
X456750D02*
D03*
Y341750D02*
D03*
X400500Y341750D02*
D03*
D64*
X393000Y252000D02*
D03*
Y185000D02*
D03*
M02*
