M48
;Layer_Color=9474304
;FILE_FORMAT=4:4
METRIC,LZ
;TYPE=PLATED
T1F00S00C0.4000
T2F00S00C0.8000
T3F00S00C0.9000
T4F00S00C1.0000
T5F00S00C1.0200
T6F00S00C1.2000
T7F00S00C1.5000
T8F00S00C1.6000
T9F00S00C3.2000
;TYPE=NON_PLATED
T10F00S00C3.2500
%
T01
X-00101Y00203
X00024937Y00186222
X00042406Y00197
X00042Y00237
X00061932Y00273174
X00155095Y00277438
X00189625Y00247625
X00186884Y00183663
X00174Y00161
X00155
X00144479Y00161127
X00133Y00183
X00133892Y00201
X0010746Y00177115
X00082002Y00185537
X00025146Y00147595
X00023057Y00068713
X-00056943
X00107057Y00067712
X00235057Y00124712
X00307Y00125
X00283Y00287
X00289Y00303
X00257057Y00299713
X0025746Y00328
X00258493Y00338067
X00260878Y0034773
X00242Y00348158
X00244273Y00361698
X00250915Y00368777
X00306Y00366
Y00326
X00266951Y00325282
X0023506Y0032006
X00127057Y00319713
X00096057Y00396712
X00041268Y00354
X-00051943Y00377713
X-00050943Y00318713
X00344Y00326
Y00359
X00381029Y00332191
X00383394Y00318394
X00366Y00308
X0036Y00252
X00350955Y00228
X00424337Y00251962
X00481057Y00253713
X0048179Y00341042
X00437Y00204
X00435057Y00432713
X00377057Y00411712
T02
X0033Y-00043
X0061
X0060975Y0010925
X0033Y00033
T03
X-00063421Y001625
Y001879
Y002133
Y002387
X-00038021Y00226
Y002006
Y001752
Y001498
T04
X003428Y00441
X003682
X003174
X00292
X002666
T05
X-00175918Y00131004
Y00156404
Y00232096
Y00257496
T06
X00581Y00218
Y00418
T07
X00805Y00141
Y00228
T08
X00697Y-00063
X-00096416Y001155
Y00273
X00697Y00161
T09
X-00140542Y00049472
Y00329472
X00814458
Y00049472
T10
X-00126921Y001371
Y002514
M30
