G04*
G04 #@! TF.GenerationSoftware,Altium Limited,Altium Designer,21.0.8 (223)*
G04*
G04 Layer_Color=8421504*
%FSLAX44Y44*%
%MOMM*%
G71*
G04*
G04 #@! TF.SameCoordinates,2EEA6137-B325-4497-8457-BD4E04CF0BC7*
G04*
G04*
G04 #@! TF.FilePolarity,Positive*
G04*
G01*
G75*
%ADD10R,2.2000X1.0500*%
%ADD11R,1.0500X1.0000*%
G04:AMPARAMS|DCode=12|XSize=1.9mm|YSize=1.1mm|CornerRadius=0.275mm|HoleSize=0mm|Usage=FLASHONLY|Rotation=270.000|XOffset=0mm|YOffset=0mm|HoleType=Round|Shape=RoundedRectangle|*
%AMROUNDEDRECTD12*
21,1,1.9000,0.5500,0,0,270.0*
21,1,1.3500,1.1000,0,0,270.0*
1,1,0.5500,-0.2750,-0.6750*
1,1,0.5500,-0.2750,0.6750*
1,1,0.5500,0.2750,0.6750*
1,1,0.5500,0.2750,-0.6750*
%
%ADD12ROUNDEDRECTD12*%
G04:AMPARAMS|DCode=13|XSize=0.5mm|YSize=0.5mm|CornerRadius=0.25mm|HoleSize=0mm|Usage=FLASHONLY|Rotation=180.000|XOffset=0mm|YOffset=0mm|HoleType=Round|Shape=RoundedRectangle|*
%AMROUNDEDRECTD13*
21,1,0.5000,0.0000,0,0,180.0*
21,1,0.0000,0.5000,0,0,180.0*
1,1,0.5000,0.0000,0.0000*
1,1,0.5000,0.0000,0.0000*
1,1,0.5000,0.0000,0.0000*
1,1,0.5000,0.0000,0.0000*
%
%ADD13ROUNDEDRECTD13*%
%ADD14O,0.3000X1.3000*%
%ADD15O,1.3000X0.3000*%
%ADD16R,0.9000X0.9500*%
%ADD17R,0.8000X0.8000*%
%ADD18R,2.0000X1.3000*%
%ADD19R,1.2700X1.2700*%
%ADD20R,0.9500X0.9000*%
%ADD21R,0.6500X1.5250*%
D10*
X-45000Y448000D02*
D03*
Y418500D02*
D03*
D11*
X-29750Y433250D02*
D03*
D12*
X402000Y324000D02*
D03*
X425000Y324000D02*
D03*
Y361000D02*
D03*
X402000D02*
D03*
X244000Y208000D02*
D03*
X267000D02*
D03*
Y171000D02*
D03*
X244000Y171000D02*
D03*
D13*
X138000Y255500D02*
D03*
Y266500D02*
D03*
X171000Y255500D02*
D03*
Y266500D02*
D03*
X155000D02*
D03*
Y255500D02*
D03*
D14*
X350500Y303750D02*
D03*
X345500D02*
D03*
X340500D02*
D03*
X335500D02*
D03*
X330500D02*
D03*
X325500D02*
D03*
X320500D02*
D03*
X315500D02*
D03*
X310500D02*
D03*
X305500D02*
D03*
X300500D02*
D03*
X295500D02*
D03*
Y390250D02*
D03*
X300500D02*
D03*
X305500D02*
D03*
X310500D02*
D03*
X315500D02*
D03*
X320500D02*
D03*
X325500D02*
D03*
X330500D02*
D03*
X335500D02*
D03*
X340500D02*
D03*
X345500D02*
D03*
X350500D02*
D03*
X134500Y147750D02*
D03*
X139500D02*
D03*
X144500D02*
D03*
X149500D02*
D03*
X154500D02*
D03*
X159500D02*
D03*
X164500D02*
D03*
X169500D02*
D03*
X174500D02*
D03*
X179500D02*
D03*
X184500D02*
D03*
X189500D02*
D03*
Y234250D02*
D03*
X184500D02*
D03*
X179500D02*
D03*
X174500D02*
D03*
X169500D02*
D03*
X164500D02*
D03*
X159500D02*
D03*
X154500D02*
D03*
X149500D02*
D03*
X144500D02*
D03*
X139500D02*
D03*
X134500D02*
D03*
D15*
X279750Y319500D02*
D03*
Y324500D02*
D03*
Y329500D02*
D03*
Y334500D02*
D03*
Y339500D02*
D03*
Y344500D02*
D03*
Y349500D02*
D03*
Y354500D02*
D03*
Y359500D02*
D03*
Y364500D02*
D03*
Y369500D02*
D03*
Y374500D02*
D03*
X366250D02*
D03*
Y369500D02*
D03*
Y364500D02*
D03*
Y359500D02*
D03*
Y354500D02*
D03*
Y349500D02*
D03*
Y344500D02*
D03*
Y339500D02*
D03*
Y334500D02*
D03*
Y329500D02*
D03*
Y324500D02*
D03*
Y319500D02*
D03*
X118750Y218500D02*
D03*
Y213500D02*
D03*
Y208500D02*
D03*
Y203500D02*
D03*
Y198500D02*
D03*
Y193500D02*
D03*
Y188500D02*
D03*
Y183500D02*
D03*
Y178500D02*
D03*
Y173500D02*
D03*
Y168500D02*
D03*
Y163500D02*
D03*
X205250D02*
D03*
Y168500D02*
D03*
Y173500D02*
D03*
Y178500D02*
D03*
X205250Y183500D02*
D03*
Y188500D02*
D03*
Y193500D02*
D03*
X205250Y198500D02*
D03*
Y203500D02*
D03*
Y208500D02*
D03*
Y213500D02*
D03*
Y218500D02*
D03*
D16*
X283000Y260750D02*
D03*
Y275250D02*
D03*
X295000Y260750D02*
D03*
Y275250D02*
D03*
X144647Y111477D02*
D03*
Y125977D02*
D03*
X168973Y126247D02*
D03*
Y111747D02*
D03*
X383000Y352750D02*
D03*
Y367250D02*
D03*
X309000Y260750D02*
D03*
Y275250D02*
D03*
X181442Y126225D02*
D03*
Y111725D02*
D03*
X102000Y162250D02*
D03*
Y147750D02*
D03*
X323000Y275250D02*
D03*
Y260750D02*
D03*
D17*
X282867Y246549D02*
D03*
Y231549D02*
D03*
X323000Y246750D02*
D03*
Y231750D02*
D03*
X309000D02*
D03*
Y246750D02*
D03*
X295000Y231750D02*
D03*
Y246750D02*
D03*
D18*
X181000Y293000D02*
D03*
Y313000D02*
D03*
Y333000D02*
D03*
Y353000D02*
D03*
Y373000D02*
D03*
Y393000D02*
D03*
Y413000D02*
D03*
Y433000D02*
D03*
X17250D02*
D03*
Y413000D02*
D03*
Y393000D02*
D03*
Y373000D02*
D03*
Y353000D02*
D03*
Y333000D02*
D03*
Y313000D02*
D03*
Y293000D02*
D03*
D19*
X460500Y406300D02*
D03*
Y431700D02*
D03*
X405500D02*
D03*
X405500Y406300D02*
D03*
D20*
X370750Y252000D02*
D03*
X385250D02*
D03*
X413250D02*
D03*
X398750D02*
D03*
X49250Y111000D02*
D03*
X34750D02*
D03*
X49250Y125000D02*
D03*
X34750D02*
D03*
X50250Y186000D02*
D03*
X35750D02*
D03*
X50250Y148000D02*
D03*
X35750D02*
D03*
X56750Y197000D02*
D03*
X71250D02*
D03*
X55750Y237000D02*
D03*
X70250D02*
D03*
X50250Y160000D02*
D03*
X35750D02*
D03*
X50250Y174000D02*
D03*
X35750D02*
D03*
X85250Y224000D02*
D03*
X70750D02*
D03*
X85250Y209000D02*
D03*
X70750D02*
D03*
X82250Y174000D02*
D03*
X67750D02*
D03*
X82250Y160000D02*
D03*
X67750D02*
D03*
D21*
X359950Y175880D02*
D03*
X372650D02*
D03*
X385350D02*
D03*
X398050D02*
D03*
Y230120D02*
D03*
X385350D02*
D03*
X372650D02*
D03*
X359950D02*
D03*
M02*
