M48
;Layer_Color=9474304
;FILE_FORMAT=4:4
METRIC,LZ
;TYPE=PLATED
T1F00S00C0.4000
T2F00S00C1.0000
T3F00S00C1.1000
T4F00S00C3.2000
%
T01
X00011566Y00126597
X00011524Y001398
Y001523
Y001648
Y001773
Y001898
Y002023
Y002148
Y002273
Y002398
Y002523
Y002648
Y002773
Y002898
Y003023
Y003148
Y003273
Y003398
Y003523
X00010894Y00364743
Y00377243
X0008125Y003645
X0008188Y00352057
Y00339557
Y00327057
Y00314557
Y00302057
Y00289557
Y00277057
Y00264557
Y00252057
Y00239557
Y00227057
Y00214557
Y00202057
Y00189557
Y00177057
Y00164557
Y00152057
Y00139557
X00081724Y00126829
X0008175Y00114
X00189785Y00143755
X00273596Y00240564
X00355902Y00285221
X0037Y00285
X0038575Y0028175
X00387994Y00306036
X0040075Y0031575
X00359329Y00303001
X00371598Y00350117
X0037175Y0038925
X00375201Y00207267
X00377419Y00164853
X00399658Y00164536
X003845Y000965
X0017375Y00425936
X0012525Y004245
X00118592Y00397687
X00108427Y00373908
X004425Y00351028
X00443269Y00305869
X0045625Y00306
X00473Y0031675
X00503Y00318
Y00329
X00500583Y00301127
X00500621Y00291013
X00500869Y00281516
X00465241Y00280938
X00463951Y00245944
X0049475Y0023125
X0049625Y00181
X0052575Y001885
X00516Y0011025
X00467326Y0011186
X00467349Y00143231
X00456458Y0016385
X00433732Y0015456
X0042025Y001095
X0045025Y0008875
X004285Y00233
X004275Y002585
X0047175Y0037425
X00499465Y00370374
X00173751Y00448877
X00149677Y00465962
X00121265Y00461444
X00100539Y00446344
T02
X00114Y00117
Y001424
Y001678
Y001932
Y002186
Y00244
Y002694
X0052575Y00274
Y002994
Y003248
Y003502
Y002486
T03
X0026275Y0009525
Y0014525
X0052625Y0013855
Y0016395
T04
X0017018Y002413
X0037084
M30
