G04*
G04 #@! TF.GenerationSoftware,Altium Limited,Altium Designer,21.0.8 (223)*
G04*
G04 Layer_Color=8421504*
%FSLAX44Y44*%
%MOMM*%
G71*
G04*
G04 #@! TF.SameCoordinates,3C593E1E-8741-496A-A554-97E108CC9687*
G04*
G04*
G04 #@! TF.FilePolarity,Positive*
G04*
G01*
G75*
G04:AMPARAMS|DCode=10|XSize=0.6mm|YSize=1mm|CornerRadius=0mm|HoleSize=0mm|Usage=FLASHONLY|Rotation=315.000|XOffset=0mm|YOffset=0mm|HoleType=Round|Shape=Rectangle|*
%AMROTATEDRECTD10*
4,1,4,-0.5657,-0.1414,0.1414,0.5657,0.5657,0.1414,-0.1414,-0.5657,-0.5657,-0.1414,0.0*
%
%ADD10ROTATEDRECTD10*%

%ADD11R,0.9000X0.9500*%
G04:AMPARAMS|DCode=12|XSize=0.9mm|YSize=0.95mm|CornerRadius=0mm|HoleSize=0mm|Usage=FLASHONLY|Rotation=45.000|XOffset=0mm|YOffset=0mm|HoleType=Round|Shape=Rectangle|*
%AMROTATEDRECTD12*
4,1,4,0.0177,-0.6541,-0.6541,0.0177,-0.0177,0.6541,0.6541,-0.0177,0.0177,-0.6541,0.0*
%
%ADD12ROTATEDRECTD12*%

%ADD13R,0.8000X0.8000*%
%ADD14R,0.9500X0.9000*%
%ADD15R,2.0000X5.3000*%
%ADD16R,1.7500X1.7500*%
%ADD17R,0.3000X0.8000*%
%ADD18R,0.8000X0.3000*%
G04:AMPARAMS|DCode=19|XSize=0.5mm|YSize=0.5mm|CornerRadius=0.25mm|HoleSize=0mm|Usage=FLASHONLY|Rotation=45.000|XOffset=0mm|YOffset=0mm|HoleType=Round|Shape=RoundedRectangle|*
%AMROUNDEDRECTD19*
21,1,0.5000,0.0000,0,0,45.0*
21,1,0.0000,0.5000,0,0,45.0*
1,1,0.5000,0.0000,0.0000*
1,1,0.5000,0.0000,0.0000*
1,1,0.5000,0.0000,0.0000*
1,1,0.5000,0.0000,0.0000*
%
%ADD19ROUNDEDRECTD19*%
%ADD20C,1.5000*%
%ADD21R,2.0000X1.3000*%
%ADD22O,1.4000X0.4500*%
G04:AMPARAMS|DCode=23|XSize=0.9mm|YSize=0.95mm|CornerRadius=0mm|HoleSize=0mm|Usage=FLASHONLY|Rotation=135.000|XOffset=0mm|YOffset=0mm|HoleType=Round|Shape=Rectangle|*
%AMROTATEDRECTD23*
4,1,4,0.6541,0.0177,-0.0177,-0.6541,-0.6541,-0.0177,0.0177,0.6541,0.6541,0.0177,0.0*
%
%ADD23ROTATEDRECTD23*%

D10*
X391044Y106062D02*
D03*
X401297Y129750D02*
D03*
X414732Y116315D02*
D03*
D11*
X385369Y68069D02*
D03*
Y82569D02*
D03*
X413750Y222500D02*
D03*
X413750Y237000D02*
D03*
X404000Y196750D02*
D03*
Y182250D02*
D03*
X410000Y330250D02*
D03*
X410000Y315750D02*
D03*
D12*
X423627Y126623D02*
D03*
X413373Y136876D02*
D03*
D13*
X398206Y68265D02*
D03*
Y83265D02*
D03*
D14*
X467000Y186000D02*
D03*
X481500D02*
D03*
X375773Y181338D02*
D03*
X390273D02*
D03*
X375543Y197027D02*
D03*
X390043D02*
D03*
X414261Y210463D02*
D03*
X428761D02*
D03*
X457750Y210500D02*
D03*
X443250D02*
D03*
X482690Y197472D02*
D03*
X497190Y197472D02*
D03*
X443000Y222500D02*
D03*
X428500D02*
D03*
X468250Y171750D02*
D03*
X482750D02*
D03*
D15*
X484750Y124250D02*
D03*
X449750D02*
D03*
D16*
X433750Y182250D02*
D03*
D17*
X441250Y167250D02*
D03*
X436250D02*
D03*
X431250D02*
D03*
X426250Y167250D02*
D03*
Y197250D02*
D03*
X431250D02*
D03*
X436250D02*
D03*
X441250D02*
D03*
D18*
X418750Y174750D02*
D03*
X418750Y179750D02*
D03*
Y184750D02*
D03*
X418750Y189750D02*
D03*
X448750D02*
D03*
Y184750D02*
D03*
Y179750D02*
D03*
Y174750D02*
D03*
D19*
X415936Y154064D02*
D03*
X423007Y146993D02*
D03*
X430962Y139038D02*
D03*
D20*
X463607Y246179D02*
D03*
D21*
X312750Y305500D02*
D03*
X312750Y325500D02*
D03*
Y345500D02*
D03*
X312750Y365500D02*
D03*
X312750Y385500D02*
D03*
X312750Y405500D02*
D03*
Y425500D02*
D03*
Y445500D02*
D03*
X149000D02*
D03*
Y425500D02*
D03*
Y405500D02*
D03*
Y385500D02*
D03*
Y365500D02*
D03*
Y345500D02*
D03*
Y325500D02*
D03*
Y305500D02*
D03*
D22*
X487500Y283750D02*
D03*
Y290250D02*
D03*
Y296750D02*
D03*
Y303250D02*
D03*
Y309750D02*
D03*
Y316250D02*
D03*
Y322750D02*
D03*
Y329250D02*
D03*
Y335750D02*
D03*
Y342250D02*
D03*
X428500Y283750D02*
D03*
Y290250D02*
D03*
Y296750D02*
D03*
Y303250D02*
D03*
Y309750D02*
D03*
Y316250D02*
D03*
Y322750D02*
D03*
Y329250D02*
D03*
Y335750D02*
D03*
Y342250D02*
D03*
D23*
X476049Y210028D02*
D03*
X465796Y199775D02*
D03*
M02*
