G04*
G04 #@! TF.GenerationSoftware,Altium Limited,Altium Designer,21.0.8 (223)*
G04*
G04 Layer_Physical_Order=1*
G04 Layer_Color=2441676*
%FSLAX44Y44*%
%MOMM*%
G71*
G04*
G04 #@! TF.SameCoordinates,3C593E1E-8741-496A-A554-97E108CC9687*
G04*
G04*
G04 #@! TF.FilePolarity,Positive*
G04*
G01*
G75*
G04:AMPARAMS|DCode=10|XSize=0.6mm|YSize=1mm|CornerRadius=0mm|HoleSize=0mm|Usage=FLASHONLY|Rotation=315.000|XOffset=0mm|YOffset=0mm|HoleType=Round|Shape=Rectangle|*
%AMROTATEDRECTD10*
4,1,4,-0.5657,-0.1414,0.1414,0.5657,0.5657,0.1414,-0.1414,-0.5657,-0.5657,-0.1414,0.0*
%
%ADD10ROTATEDRECTD10*%

%ADD11R,0.9000X0.9500*%
G04:AMPARAMS|DCode=12|XSize=0.9mm|YSize=0.95mm|CornerRadius=0mm|HoleSize=0mm|Usage=FLASHONLY|Rotation=45.000|XOffset=0mm|YOffset=0mm|HoleType=Round|Shape=Rectangle|*
%AMROTATEDRECTD12*
4,1,4,0.0177,-0.6541,-0.6541,0.0177,-0.0177,0.6541,0.6541,-0.0177,0.0177,-0.6541,0.0*
%
%ADD12ROTATEDRECTD12*%

%ADD13R,0.8000X0.8000*%
%ADD14R,0.9500X0.9000*%
%ADD15R,2.0000X5.3000*%
%ADD16R,1.7500X1.7500*%
%ADD17R,0.3000X0.8000*%
%ADD18R,0.8000X0.3000*%
G04:AMPARAMS|DCode=19|XSize=0.5mm|YSize=0.5mm|CornerRadius=0.25mm|HoleSize=0mm|Usage=FLASHONLY|Rotation=45.000|XOffset=0mm|YOffset=0mm|HoleType=Round|Shape=RoundedRectangle|*
%AMROUNDEDRECTD19*
21,1,0.5000,0.0000,0,0,45.0*
21,1,0.0000,0.5000,0,0,45.0*
1,1,0.5000,0.0000,0.0000*
1,1,0.5000,0.0000,0.0000*
1,1,0.5000,0.0000,0.0000*
1,1,0.5000,0.0000,0.0000*
%
%ADD19ROUNDEDRECTD19*%
%ADD20C,1.5000*%
%ADD21R,2.0000X1.3000*%
%ADD22O,1.4000X0.4500*%
G04:AMPARAMS|DCode=23|XSize=0.9mm|YSize=0.95mm|CornerRadius=0mm|HoleSize=0mm|Usage=FLASHONLY|Rotation=135.000|XOffset=0mm|YOffset=0mm|HoleType=Round|Shape=Rectangle|*
%AMROTATEDRECTD23*
4,1,4,0.6541,0.0177,-0.0177,-0.6541,-0.6541,-0.0177,0.0177,0.6541,0.6541,0.0177,0.0*
%
%ADD23ROTATEDRECTD23*%

%ADD46C,0.8000*%
%ADD47C,0.4000*%
%ADD48C,0.2500*%
%ADD49C,0.2540*%
%ADD50R,3.7750X0.6250*%
G04:AMPARAMS|DCode=51|XSize=0.8mm|YSize=1.0488mm|CornerRadius=0mm|HoleSize=0mm|Usage=FLASHONLY|Rotation=135.000|XOffset=0mm|YOffset=0mm|HoleType=Round|Shape=Rectangle|*
%AMROTATEDRECTD51*
4,1,4,0.6536,0.0880,-0.0880,-0.6536,-0.6536,-0.0880,0.0880,0.6536,0.6536,0.0880,0.0*
%
%ADD51ROTATEDRECTD51*%

%ADD52C,2.0000*%
G04:AMPARAMS|DCode=53|XSize=2.032mm|YSize=2.032mm|CornerRadius=0.508mm|HoleSize=0mm|Usage=FLASHONLY|Rotation=180.000|XOffset=0mm|YOffset=0mm|HoleType=Round|Shape=RoundedRectangle|*
%AMROUNDEDRECTD53*
21,1,2.0320,1.0160,0,0,180.0*
21,1,1.0160,2.0320,0,0,180.0*
1,1,1.0160,-0.5080,0.5080*
1,1,1.0160,0.5080,0.5080*
1,1,1.0160,0.5080,-0.5080*
1,1,1.0160,-0.5080,-0.5080*
%
%ADD53ROUNDEDRECTD53*%
%ADD54C,2.0320*%
%ADD55C,5.0000*%
%ADD56C,0.8000*%
G36*
X345811Y481192D02*
X348919Y480783D01*
X351948Y479971D01*
X354844Y478772D01*
X357559Y477204D01*
X360046Y475296D01*
X362262Y473079D01*
X364171Y470592D01*
X365738Y467877D01*
X366938Y464981D01*
X367749Y461953D01*
X368158Y458845D01*
X368158Y457277D01*
X368172Y457211D01*
X368161Y457144D01*
X368285Y453330D01*
X368331Y453133D01*
X368318Y452931D01*
X369314Y445368D01*
X369400Y445113D01*
X369418Y444845D01*
X371392Y437476D01*
X371511Y437235D01*
X371564Y436971D01*
X374483Y429923D01*
X374632Y429700D01*
X374719Y429445D01*
X378533Y422839D01*
X378711Y422636D01*
X378829Y422395D01*
X383473Y416343D01*
X383676Y416166D01*
X383825Y415942D01*
X389219Y410548D01*
X389443Y410398D01*
X389620Y410196D01*
X395672Y405552D01*
X395914Y405433D01*
X396116Y405256D01*
X402722Y401442D01*
X402977Y401355D01*
X403201Y401206D01*
X410248Y398287D01*
X410512Y398234D01*
X410754Y398115D01*
X418122Y396141D01*
X418390Y396123D01*
X418645Y396037D01*
X426208Y395041D01*
X426410Y395054D01*
X426607Y395008D01*
X430421Y394883D01*
X430488Y394894D01*
X430555Y394881D01*
X514533D01*
X516100Y394881D01*
X519208Y394472D01*
X522236Y393661D01*
X525133Y392461D01*
X527848Y390893D01*
X530334Y388985D01*
X532551Y386768D01*
X534460Y384281D01*
X536027Y381566D01*
X537227Y378670D01*
X538038Y375642D01*
X538447Y372534D01*
Y356208D01*
X536447Y355672D01*
X535352Y357568D01*
X533118Y359802D01*
X530382Y361382D01*
X527330Y362200D01*
X524170D01*
X521118Y361382D01*
X518382Y359802D01*
X516148Y357568D01*
X514568Y354832D01*
X513750Y351780D01*
Y348620D01*
X514246Y346770D01*
X511592Y345965D01*
X507425Y345555D01*
X507279Y345584D01*
X494910D01*
X493908Y346253D01*
X492250Y346583D01*
X482750D01*
X481092Y346253D01*
X479686Y345314D01*
X478747Y343908D01*
X478417Y342250D01*
X478747Y340592D01*
X479588Y339000D01*
X478747Y337408D01*
X478417Y335750D01*
X478747Y334092D01*
X479686Y332686D01*
Y332314D01*
X478747Y330908D01*
X478417Y329250D01*
X478747Y327592D01*
X479588Y326000D01*
X478747Y324408D01*
X478417Y322750D01*
X478442Y322621D01*
X476599Y321636D01*
X476399Y321837D01*
X474193Y322750D01*
X471806D01*
X469601Y321837D01*
X468093Y320328D01*
X438966D01*
X437499Y322328D01*
X437583Y322750D01*
X437286Y324244D01*
X437280Y324463D01*
X438265Y326494D01*
X441616Y327299D01*
X442442Y327641D01*
X442448Y327639D01*
X442604Y327670D01*
X443685Y328392D01*
X443686Y328392D01*
X443690Y328398D01*
X444055Y328620D01*
X445035Y329026D01*
X448883Y331384D01*
X452314Y334315D01*
X452297Y334332D01*
X466668Y348703D01*
X466685Y348686D01*
X469616Y352117D01*
X471974Y355965D01*
X473701Y360134D01*
X474755Y364522D01*
X475109Y369021D01*
X476451Y370465D01*
X476837Y370851D01*
X477750Y373056D01*
Y375443D01*
X476837Y377649D01*
X475149Y379337D01*
X472943Y380250D01*
X470556D01*
X468351Y379337D01*
X466664Y377649D01*
X465750Y375443D01*
Y373056D01*
X466664Y370851D01*
X468351Y369163D01*
X468416Y369137D01*
Y369021D01*
X468445Y368875D01*
X468035Y364708D01*
X466777Y360560D01*
X464733Y356738D01*
X462077Y353501D01*
X461953Y353418D01*
X447582Y339047D01*
X447499Y338923D01*
X444262Y336267D01*
X440440Y334224D01*
X439673Y333991D01*
X438712Y335789D01*
X440771Y337479D01*
X442929Y340109D01*
X443772Y341687D01*
X444034Y342078D01*
X444065Y342234D01*
X444533Y343109D01*
X445319Y345701D01*
X445899Y345941D01*
X447587Y347629D01*
X448500Y349834D01*
Y352221D01*
X447587Y354426D01*
X445899Y356114D01*
X443693Y357028D01*
X441306D01*
X439101Y356114D01*
X437413Y354426D01*
X436500Y352221D01*
Y349834D01*
X437413Y347629D01*
X436122Y346092D01*
X435119Y346762D01*
X433250Y347134D01*
X429770D01*
Y342250D01*
X428500D01*
Y340980D01*
X419119D01*
X419238Y340381D01*
X420297Y338797D01*
X420558Y338622D01*
X419747Y337408D01*
X419417Y335750D01*
X419747Y334092D01*
X420686Y332686D01*
Y332314D01*
X419747Y330908D01*
X419701Y330677D01*
X417758Y329594D01*
X416992Y329918D01*
X416500Y330430D01*
Y337000D01*
X403500D01*
Y323500D01*
X403500D01*
X403500Y322963D01*
X401943Y321750D01*
X399557D01*
X397351Y320836D01*
X395663Y319149D01*
X395115Y317824D01*
X392902Y317208D01*
X357297Y352813D01*
X357173Y352896D01*
X354517Y356133D01*
X352473Y359955D01*
X351215Y364103D01*
X350805Y368270D01*
X350834Y368416D01*
Y370229D01*
X350859D01*
X350505Y374728D01*
X349451Y379116D01*
X347724Y383285D01*
X345366Y387133D01*
X342435Y390564D01*
X342418Y390547D01*
X332179Y400786D01*
X332179Y400787D01*
X332193Y400801D01*
X328912Y403603D01*
X325233Y405858D01*
X324750Y406058D01*
Y414000D01*
X300750D01*
Y397000D01*
X324750D01*
Y397000D01*
X325791Y397492D01*
X325986Y397332D01*
X327463Y396071D01*
X328849Y394685D01*
X337703Y385832D01*
X337827Y385749D01*
X340483Y382512D01*
X342527Y378690D01*
X343785Y374542D01*
X344195Y370375D01*
X344166Y370229D01*
X344141Y368416D01*
X342161Y368301D01*
X341541Y370345D01*
X339948Y373325D01*
X337805Y375937D01*
X337792Y375923D01*
X337792Y375924D01*
X333297Y380418D01*
X333314Y380435D01*
X329883Y383366D01*
X326035Y385724D01*
X324750Y386256D01*
Y394000D01*
X300750D01*
Y377000D01*
X324750D01*
Y377000D01*
X326750Y377262D01*
X328499Y375827D01*
X328582Y375703D01*
X333077Y371208D01*
X333147Y371161D01*
X334777Y369038D01*
X335833Y366487D01*
X335939Y365680D01*
X336108Y363750D01*
X336108D01*
X336596Y358795D01*
X336880Y357859D01*
X335387Y356589D01*
X335185Y356530D01*
X330045Y361670D01*
X330083Y361708D01*
X326368Y364757D01*
X324750Y365622D01*
Y374000D01*
X300750D01*
Y357000D01*
X324750D01*
X326321Y355964D01*
X333352Y348933D01*
X332148Y347309D01*
X332026Y347374D01*
X328353Y348488D01*
X324750Y348843D01*
Y354000D01*
X300750D01*
Y337000D01*
X324750D01*
Y340668D01*
X326254Y341987D01*
X327879Y341773D01*
X330998Y340481D01*
X333561Y338515D01*
X333643Y338392D01*
X349533Y322502D01*
X349656Y322420D01*
X352313Y319183D01*
X354356Y315360D01*
X355614Y311213D01*
X355923Y308080D01*
X354243Y306400D01*
X354133Y306134D01*
X351816Y305767D01*
X350838Y306912D01*
X350820Y306895D01*
X350820Y306895D01*
X337297Y320418D01*
X337314Y320435D01*
X333883Y323366D01*
X330035Y325724D01*
X325866Y327451D01*
X324750Y327719D01*
Y334000D01*
X300750D01*
Y317000D01*
X324750D01*
Y318627D01*
X326750Y319826D01*
X329262Y318483D01*
X332499Y315827D01*
X332582Y315703D01*
X346105Y302180D01*
X346229Y302097D01*
X348885Y298860D01*
X350928Y295038D01*
X352187Y290890D01*
X352267Y290072D01*
X350816Y288620D01*
X349902Y286415D01*
Y284028D01*
X350816Y281822D01*
X352503Y280135D01*
X354709Y279221D01*
X357095D01*
X359301Y280135D01*
X360989Y281822D01*
X361902Y284028D01*
Y286415D01*
X360989Y288620D01*
X359301Y290308D01*
X358956Y290451D01*
X358907Y291076D01*
X357945Y295080D01*
X358555Y296170D01*
X359381Y297001D01*
X360523D01*
X362728Y297915D01*
X364416Y299603D01*
X364666Y300206D01*
X366666Y299808D01*
Y290113D01*
X366601Y290086D01*
X364913Y288399D01*
X364000Y286194D01*
Y283806D01*
X364913Y281601D01*
X366601Y279913D01*
X368806Y279000D01*
X371194D01*
X373399Y279913D01*
X375087Y281601D01*
X376000Y283806D01*
Y286194D01*
X375087Y288399D01*
X373399Y290086D01*
X373334Y290113D01*
Y306479D01*
X373359D01*
X373005Y310978D01*
X372180Y314410D01*
X373993Y315426D01*
X382051Y307368D01*
X381994Y307229D01*
Y304842D01*
X382907Y302637D01*
X384595Y300949D01*
X386800Y300036D01*
X389187D01*
X391393Y300949D01*
X393080Y302637D01*
X393806Y304388D01*
X395841Y305279D01*
X396012Y305134D01*
X399860Y302776D01*
X404029Y301049D01*
X408417Y299995D01*
X412916Y299641D01*
Y299666D01*
X418365D01*
X419599Y297666D01*
X419417Y296750D01*
X419649Y295584D01*
X418809Y294081D01*
X418349Y293584D01*
X415235D01*
Y293635D01*
X410578Y293176D01*
X406101Y291818D01*
X401974Y289612D01*
X398357Y286644D01*
X398392Y286607D01*
X391518Y279733D01*
X391449Y279630D01*
X388430Y277153D01*
X384879Y275254D01*
X383328Y274784D01*
X381025Y274085D01*
X377138Y273702D01*
X377017Y273726D01*
X278879D01*
X278732Y273697D01*
X274565Y274108D01*
X270418Y275366D01*
X266595Y277409D01*
X263358Y280065D01*
X263276Y280189D01*
X202108Y341357D01*
X202149Y341399D01*
X198272Y344581D01*
X193849Y346946D01*
X189049Y348402D01*
X184058Y348893D01*
Y348834D01*
X161000D01*
Y354000D01*
X137000D01*
Y337000D01*
X161000D01*
Y342166D01*
X184058D01*
X184152Y342185D01*
X187742Y341831D01*
X191285Y340756D01*
X194550Y339011D01*
X197339Y336722D01*
X197393Y336642D01*
X258561Y275474D01*
X258543Y275457D01*
X261975Y272526D01*
X265823Y270168D01*
X269992Y268441D01*
X274380Y267388D01*
X278879Y267034D01*
Y267058D01*
X357516D01*
X357996Y265058D01*
X356689Y264393D01*
X353251Y261894D01*
X350246Y258889D01*
X347747Y255451D01*
X345818Y251664D01*
X344505Y247623D01*
X343840Y243425D01*
Y239175D01*
X344505Y234977D01*
X345818Y230936D01*
X347747Y227149D01*
X350246Y223711D01*
X353251Y220706D01*
X356689Y218207D01*
X360476Y216278D01*
X364518Y214965D01*
X368715Y214300D01*
X371274D01*
X371737Y212594D01*
X371748Y212300D01*
X370114Y210666D01*
X369201Y208461D01*
Y206074D01*
X369428Y205527D01*
X368793Y203526D01*
X368793D01*
Y190527D01*
X381293D01*
X382793Y190527D01*
X384293Y190527D01*
X394993D01*
X396331Y188526D01*
X396132Y188045D01*
X395921Y187838D01*
X384839D01*
X383063Y188378D01*
X381746Y188378D01*
X377043D01*
Y181338D01*
Y174298D01*
X381746D01*
X383063Y174298D01*
X384839Y174838D01*
X397023D01*
Y174838D01*
X397500Y175500D01*
X403451D01*
X404216Y173652D01*
X401027Y170464D01*
X400852Y170536D01*
X398465D01*
X396260Y169623D01*
X394572Y167935D01*
X393658Y165730D01*
Y163343D01*
X394572Y161138D01*
X396260Y159450D01*
X398465Y158536D01*
X400852D01*
X403057Y159450D01*
X404745Y161138D01*
X405658Y163343D01*
Y165722D01*
X411104Y171168D01*
X412210Y170710D01*
Y170710D01*
X417480D01*
Y174750D01*
X420020D01*
Y170710D01*
X422210D01*
Y168520D01*
X426250D01*
Y165980D01*
X422210D01*
Y160958D01*
X420658Y159405D01*
X419041Y160205D01*
X419041Y160205D01*
X418273Y160411D01*
X416035Y160561D01*
X416035Y160561D01*
X415246Y160458D01*
X413122Y159739D01*
X412432Y159342D01*
X411588Y158603D01*
X411546Y158549D01*
X411489Y158511D01*
X411439Y158436D01*
X411370Y158380D01*
X410631Y157501D01*
X410248Y156804D01*
X409557Y154615D01*
X409557Y154614D01*
X409469Y153824D01*
X407675Y153328D01*
X273093D01*
X271883Y153088D01*
X270118Y154852D01*
X267382Y156432D01*
X264330Y157250D01*
X261170D01*
X258118Y156432D01*
X255382Y154852D01*
X253148Y152618D01*
X251568Y149882D01*
X250750Y146830D01*
Y143670D01*
X251568Y140618D01*
X253148Y137882D01*
X255382Y135648D01*
X258118Y134068D01*
X261170Y133250D01*
X264330D01*
X267382Y134068D01*
X270118Y135648D01*
X272352Y137882D01*
X273932Y140618D01*
X274750Y143670D01*
Y145172D01*
X409510D01*
X410275Y143324D01*
X406529Y139578D01*
X406257Y139396D01*
X403904Y137043D01*
X402711Y138235D01*
X392812Y128336D01*
X399883Y121265D01*
X409782Y131164D01*
X411229Y129829D01*
X412843Y128215D01*
X413550Y127507D01*
X414811Y126247D01*
X416146Y124800D01*
X406247Y114901D01*
X413318Y107830D01*
X413318Y107830D01*
Y107830D01*
X414945Y106628D01*
X415163Y106101D01*
X416851Y104413D01*
X419057Y103500D01*
X421443D01*
X423649Y104413D01*
X425337Y106101D01*
X426250Y108307D01*
Y110694D01*
X425337Y112899D01*
X423649Y114586D01*
X423504Y116653D01*
X423803Y117254D01*
X432996Y126447D01*
X428413Y131030D01*
X429296Y132975D01*
X430510Y132894D01*
X430510Y132894D01*
X431299Y132997D01*
X433424Y133716D01*
X434113Y134113D01*
X434957Y134851D01*
X434999Y134906D01*
X435056Y134944D01*
X435106Y135019D01*
X435175Y135075D01*
X435714Y135716D01*
X436576Y135632D01*
X437715Y135078D01*
X437724Y97750D01*
X437750Y97618D01*
Y95750D01*
X439566D01*
X439763Y95711D01*
X459750D01*
X459947Y95750D01*
X461750D01*
Y97553D01*
X461789Y97750D01*
Y150750D01*
X461750Y150947D01*
Y152750D01*
X460634D01*
X453442Y159942D01*
X452780Y160384D01*
X452000Y160539D01*
X448126D01*
X444778Y164064D01*
Y164500D01*
X444772Y164528D01*
X444777Y164557D01*
X444750Y165534D01*
Y170710D01*
X447480D01*
Y174750D01*
X448750D01*
Y176020D01*
X455290D01*
Y176436D01*
X458877D01*
X461500Y173814D01*
Y173197D01*
X461461Y173000D01*
Y159077D01*
X461536Y158701D01*
X461605Y158324D01*
X461613Y158311D01*
X461616Y158297D01*
X461829Y157978D01*
X462038Y157656D01*
X472711Y146672D01*
X472711Y94500D01*
X472866Y93720D01*
X473308Y93058D01*
X473970Y92616D01*
X474750Y92461D01*
X494750D01*
X495530Y92616D01*
X496192Y93058D01*
X496634Y93720D01*
X496789Y94500D01*
Y132711D01*
X514129D01*
X514272Y131622D01*
X514986Y129900D01*
X516120Y128420D01*
X517599Y127286D01*
X519322Y126572D01*
X521170Y126329D01*
X531330D01*
X533178Y126572D01*
X534901Y127286D01*
X536380Y128420D01*
X536447Y128509D01*
X538447Y127830D01*
Y112800D01*
X538038Y109692D01*
X537227Y106663D01*
X536027Y103767D01*
X534460Y101052D01*
X532551Y98565D01*
X530335Y96348D01*
X527848Y94440D01*
X525133Y92873D01*
X522236Y91673D01*
X519208Y90862D01*
X516100Y90452D01*
X514533Y90452D01*
X514466Y90439D01*
X514399Y90450D01*
X510585Y90325D01*
X510388Y90280D01*
X510186Y90293D01*
X502623Y89297D01*
X502369Y89211D01*
X502100Y89193D01*
X494732Y87219D01*
X494490Y87100D01*
X494226Y87047D01*
X487179Y84128D01*
X486955Y83978D01*
X486700Y83892D01*
X480094Y80078D01*
X479892Y79900D01*
X479650Y79781D01*
X473598Y75138D01*
X473421Y74935D01*
X473197Y74786D01*
X467803Y69392D01*
X467654Y69168D01*
X467452Y68991D01*
X462808Y62939D01*
X462689Y62697D01*
X462511Y62495D01*
X458697Y55889D01*
X458611Y55634D01*
X458461Y55410D01*
X455542Y48363D01*
X455489Y48099D01*
X455370Y47857D01*
X453396Y40489D01*
X453378Y40220D01*
X453292Y39966D01*
X452296Y32403D01*
X452309Y32201D01*
X452264Y32004D01*
X452139Y28190D01*
X452150Y28123D01*
X452136Y28056D01*
Y27132D01*
X451961Y26909D01*
X449961Y27601D01*
Y57819D01*
X355039D01*
Y6500D01*
X432380D01*
X432511Y4500D01*
X429790Y4142D01*
X198048D01*
X194939Y4551D01*
X191912Y5362D01*
X189015Y6562D01*
X186300Y8129D01*
X183813Y10038D01*
X181597Y12255D01*
X179688Y14742D01*
X178121Y17456D01*
X176921Y20353D01*
X176110Y23381D01*
X175701Y26489D01*
X175701Y28056D01*
X175687Y28123D01*
X175698Y28190D01*
X175574Y32004D01*
X175528Y32201D01*
X175541Y32403D01*
X174545Y39966D01*
X174459Y40220D01*
X174441Y40489D01*
X172467Y47857D01*
X172348Y48099D01*
X172295Y48363D01*
X169376Y55410D01*
X169226Y55634D01*
X169140Y55889D01*
X165326Y62495D01*
X165149Y62697D01*
X165030Y62939D01*
X160386Y68991D01*
X160183Y69168D01*
X160034Y69392D01*
X154640Y74786D01*
X154416Y74935D01*
X154239Y75138D01*
X148187Y79781D01*
X147945Y79900D01*
X147743Y80078D01*
X141137Y83892D01*
X140882Y83978D01*
X140658Y84128D01*
X133611Y87047D01*
X133347Y87100D01*
X133105Y87219D01*
X125737Y89193D01*
X125469Y89211D01*
X125214Y89297D01*
X117651Y90293D01*
X117449Y90280D01*
X117252Y90325D01*
X113438Y90450D01*
X113371Y90439D01*
X113304Y90452D01*
X93500D01*
Y377673D01*
X96245Y380017D01*
X96389Y380114D01*
X100538Y384263D01*
X100540Y384261D01*
X101766Y385754D01*
X101766Y385755D01*
X103653Y388053D01*
X105965Y392380D01*
X107390Y397075D01*
X107871Y401958D01*
X107868D01*
Y415729D01*
X107811Y416011D01*
X108156Y419507D01*
X109258Y423140D01*
X111048Y426488D01*
X113277Y429204D01*
X113515Y429364D01*
X118576Y434424D01*
X118714Y434631D01*
X121101Y436590D01*
X124040Y438161D01*
X127229Y439128D01*
X130302Y439431D01*
X130546Y439383D01*
X137000D01*
Y437000D01*
X161000D01*
Y454000D01*
X137000D01*
Y451618D01*
X130546D01*
X130315Y451572D01*
X125988Y451231D01*
X121543Y450164D01*
X117319Y448414D01*
X113420Y446025D01*
X110120Y443206D01*
X109924Y443076D01*
X104864Y438015D01*
X104767Y437871D01*
X101668Y434243D01*
X99086Y430028D01*
X97194Y425462D01*
X96041Y420656D01*
X95666Y415899D01*
X95632Y415729D01*
Y402180D01*
X95505Y401781D01*
X95500Y401775D01*
X93500Y402422D01*
Y466325D01*
X94143Y467877D01*
X95710Y470592D01*
X97618Y473079D01*
X99835Y475296D01*
X102322Y477204D01*
X105037Y478772D01*
X107934Y479971D01*
X110962Y480783D01*
X114069Y481192D01*
X115637Y481192D01*
X344244D01*
X345811Y481192D01*
D02*
G37*
G36*
X511197Y332007D02*
X513254Y331155D01*
X514568Y329432D01*
X513750Y326380D01*
Y323220D01*
X514568Y320168D01*
X516148Y317432D01*
X518382Y315198D01*
X521118Y313618D01*
X521876Y313415D01*
Y311344D01*
X520910Y311085D01*
X518050Y309435D01*
X515715Y307100D01*
X514065Y304240D01*
X513210Y301051D01*
Y300670D01*
X525750D01*
Y298130D01*
X513210D01*
Y297749D01*
X514065Y294560D01*
X515715Y291700D01*
X518050Y289366D01*
X520910Y287715D01*
X521876Y287456D01*
Y285385D01*
X521118Y285182D01*
X518382Y283602D01*
X516148Y281368D01*
X514568Y278632D01*
X514222Y277340D01*
X510136Y277019D01*
X506910Y276244D01*
X505895Y278057D01*
X505955Y278118D01*
X506869Y280323D01*
Y282710D01*
X505955Y284915D01*
X504482Y286389D01*
X505707Y287614D01*
X506621Y289820D01*
Y292207D01*
X505707Y294412D01*
X504030Y296089D01*
X505670Y297729D01*
X506583Y299934D01*
Y302321D01*
X505670Y304526D01*
X503982Y306214D01*
X501777Y307127D01*
X499390D01*
X498386Y306712D01*
X497591Y307284D01*
X496832Y308233D01*
X496881Y308480D01*
X487500D01*
Y311020D01*
X496881D01*
X496762Y311619D01*
X496381Y312189D01*
X496588Y313318D01*
X496615Y313357D01*
X499007Y313508D01*
X499601Y312913D01*
X501806Y312000D01*
X504193D01*
X506399Y312913D01*
X508087Y314601D01*
X509000Y316807D01*
Y319193D01*
X508087Y321399D01*
X507292Y322193D01*
X506613Y323500D01*
X507292Y324807D01*
X508087Y325601D01*
X509000Y327807D01*
Y330193D01*
X508962Y330284D01*
X510368Y332116D01*
X511197Y332007D01*
D02*
G37*
G36*
X469601Y311663D02*
X471806Y310750D01*
X474193D01*
X475332Y311222D01*
X475582Y311172D01*
X475583Y311172D01*
X476699D01*
X477866Y309750D01*
X478238Y307881D01*
X479297Y306297D01*
X479558Y306122D01*
X478747Y304908D01*
X478417Y303250D01*
X478747Y301592D01*
X479686Y300186D01*
Y299814D01*
X478747Y298408D01*
X478417Y296750D01*
X478747Y295092D01*
X479686Y293686D01*
Y293314D01*
X478747Y291908D01*
X478417Y290250D01*
X478747Y288592D01*
X479588Y287000D01*
X478747Y285408D01*
X478417Y283750D01*
X478747Y282092D01*
X479686Y280686D01*
X481092Y279747D01*
X482750Y279417D01*
X492250D01*
X493908Y279747D01*
X495592Y278576D01*
X495782Y278118D01*
X497470Y276430D01*
X499675Y275516D01*
X500047D01*
X500611Y273516D01*
X498380Y272149D01*
X495477Y269669D01*
X493670Y268703D01*
X489522Y267445D01*
X485355Y267035D01*
X485209Y267064D01*
X482851D01*
X481098Y267089D01*
X480880Y267110D01*
X480643Y267137D01*
X480643Y267137D01*
X480624D01*
X480497Y267138D01*
X479553Y267205D01*
X478449Y267350D01*
X478279Y267367D01*
X477524Y267486D01*
X476567Y267722D01*
X473330Y268703D01*
X469508Y270747D01*
X466271Y273403D01*
X466188Y273527D01*
X448916Y290799D01*
X447515Y292227D01*
X447515Y292227D01*
X444306Y294967D01*
X440709Y297172D01*
X438704Y298002D01*
X437835Y300278D01*
X439870Y300782D01*
X442075Y299869D01*
X444462D01*
X446668Y300782D01*
X448355Y302470D01*
X449269Y304675D01*
Y307062D01*
X448355Y309267D01*
X447451Y310172D01*
X448279Y312172D01*
X469093D01*
X469601Y311663D01*
D02*
G37*
G36*
X439744Y290040D02*
X441308Y288756D01*
X442787Y287498D01*
X444173Y286112D01*
X461473Y268812D01*
X461473Y268812D01*
X461456Y268794D01*
X464887Y265864D01*
X468735Y263506D01*
X472904Y261779D01*
X475387Y261183D01*
X477318Y260680D01*
X477403Y260645D01*
X477414Y260711D01*
X478855Y260521D01*
X480643Y260286D01*
X482010Y260367D01*
X482682Y260396D01*
X485209D01*
Y260371D01*
X489708Y260725D01*
X494096Y261779D01*
X498265Y263506D01*
X502113Y265864D01*
X504982Y268314D01*
X506516Y269134D01*
X510380Y270306D01*
X514215Y270684D01*
X514568Y269368D01*
X516148Y266632D01*
X518382Y264398D01*
X521118Y262818D01*
X522919Y262335D01*
Y260265D01*
X521118Y259782D01*
X518382Y258202D01*
X516148Y255968D01*
X514568Y253232D01*
X513750Y250180D01*
Y247020D01*
X514568Y243968D01*
X516148Y241232D01*
X518382Y238998D01*
X521118Y237418D01*
X524170Y236600D01*
X527330D01*
X530382Y237418D01*
X533118Y238998D01*
X535352Y241232D01*
X536447Y243128D01*
X538447Y242592D01*
Y172224D01*
X536447Y171688D01*
X536413Y171748D01*
X534048Y174112D01*
X531152Y175784D01*
X527922Y176650D01*
X527520D01*
Y163950D01*
X526250D01*
Y162680D01*
X513550D01*
Y162278D01*
X514416Y159048D01*
X516087Y156152D01*
X518452Y153787D01*
X520366Y152683D01*
X519954Y150611D01*
X519322Y150528D01*
X517599Y149814D01*
X516120Y148680D01*
X514986Y147201D01*
X514272Y145478D01*
X514029Y143630D01*
Y143039D01*
X496789D01*
Y147500D01*
X496759Y147650D01*
X496767Y147803D01*
X496750Y147849D01*
Y152750D01*
X491075D01*
X477590Y162710D01*
X478249Y164710D01*
X481480D01*
Y171750D01*
X482750D01*
Y173020D01*
X490040D01*
Y178790D01*
X489956D01*
X488250Y179500D01*
Y189588D01*
X489900Y190432D01*
X491217Y190432D01*
X495920D01*
Y197472D01*
Y204512D01*
X491217D01*
X489900Y204512D01*
X488124Y203972D01*
X482562D01*
X481797Y205820D01*
X486182Y210205D01*
X482102Y214285D01*
X476947Y209130D01*
X476049Y210028D01*
X475151Y209130D01*
X470173Y214108D01*
X467040Y210976D01*
X465040Y211804D01*
Y217540D01*
X459020D01*
Y210500D01*
X456480D01*
Y217540D01*
X450460D01*
X449750Y219246D01*
Y229000D01*
X436250D01*
Y229000D01*
X435250D01*
X434166Y231000D01*
X434500Y231807D01*
Y234193D01*
X433587Y236399D01*
X431899Y238087D01*
X429693Y239000D01*
X427307D01*
X425101Y238087D01*
X423413Y236399D01*
X422790Y234894D01*
X420790Y235291D01*
Y235730D01*
X413750D01*
Y237000D01*
D01*
Y235730D01*
X406710D01*
Y231026D01*
X406710Y229710D01*
X407250Y227934D01*
Y215750D01*
X407511D01*
Y203963D01*
X405703Y203500D01*
X397500D01*
Y203500D01*
X396793Y203526D01*
Y203526D01*
X384293D01*
X382293Y203526D01*
X380974Y205527D01*
X381201Y206074D01*
Y208461D01*
X380287Y210666D01*
X378600Y212354D01*
X377179Y212942D01*
X377166Y214487D01*
X377364Y215030D01*
X381204Y216278D01*
X384991Y218207D01*
X388429Y220706D01*
X391434Y223711D01*
X393932Y227149D01*
X395862Y230936D01*
X397175Y234977D01*
X397840Y239175D01*
Y243425D01*
X397175Y247623D01*
X395862Y251664D01*
X393932Y255451D01*
X391434Y258889D01*
X388429Y261894D01*
X384991Y264393D01*
X382567Y265628D01*
X382817Y267745D01*
X385410Y268367D01*
X385421Y268370D01*
X389363Y270003D01*
X393002Y272232D01*
X396247Y275004D01*
X396247Y275004D01*
X397647Y276432D01*
X403108Y281893D01*
X403145Y281949D01*
X405696Y284042D01*
X408664Y285629D01*
X411885Y286606D01*
X415169Y286929D01*
X415235Y286916D01*
X418349D01*
X418809Y286419D01*
X419649Y284916D01*
X419417Y283750D01*
X419747Y282092D01*
X420686Y280686D01*
X422092Y279747D01*
X423750Y279417D01*
X433250D01*
X434908Y279747D01*
X436314Y280686D01*
X437253Y282092D01*
X437583Y283750D01*
X437253Y285408D01*
X436412Y287000D01*
X437253Y288592D01*
X437345Y289054D01*
X439481Y290180D01*
X439744Y290040D01*
D02*
G37*
G36*
X442564Y170750D02*
X442739Y164500D01*
Y163250D01*
X447250Y158500D01*
X452000D01*
X459750Y150750D01*
Y97750D01*
X439763D01*
X439750Y150750D01*
X439997Y170006D01*
D01*
Y170006D01*
Y170006D01*
X439936Y170121D01*
X439874Y170373D01*
X439875Y170633D01*
X439939Y170885D01*
X440000Y171000D01*
X442564Y170750D01*
D02*
G37*
G36*
X418137Y158377D02*
X420148Y157382D01*
X420886Y156538D01*
X422477Y154948D01*
X415052Y147523D01*
X413638Y148937D01*
X413638Y148937D01*
X412759Y149676D01*
X411700Y151713D01*
X411501Y154000D01*
X412193Y156190D01*
X412931Y157069D01*
X412931D01*
X413775Y157807D01*
X415900Y158526D01*
X418137Y158377D01*
D02*
G37*
G36*
X432907Y144518D02*
Y144518D01*
X433786Y143779D01*
X434845Y141742D01*
X435044Y139455D01*
X434352Y137265D01*
X433614Y136386D01*
X433614D01*
X432770Y135648D01*
X430646Y134929D01*
X428408Y135078D01*
X426397Y136072D01*
X425659Y136916D01*
X424068Y138507D01*
X431493Y145932D01*
X432907Y144518D01*
D02*
G37*
G36*
X472750Y173000D02*
X472750Y163750D01*
X494750Y147500D01*
Y94500D01*
X474750D01*
X474750Y147500D01*
X463500Y159077D01*
Y173000D01*
X472750Y173000D01*
D02*
G37*
G36*
X392631Y54347D02*
X392797Y54319D01*
X392991Y54236D01*
X393214Y54153D01*
X393436Y54014D01*
X393630Y53847D01*
X393658Y53820D01*
X393713Y53764D01*
X393797Y53653D01*
X393908Y53487D01*
X394019Y53292D01*
X394102Y53098D01*
X394157Y52848D01*
X394185Y52570D01*
Y35941D01*
Y35913D01*
Y35802D01*
X394157Y35663D01*
X394102Y35469D01*
X394046Y35247D01*
X393935Y35025D01*
X393769Y34803D01*
X393574Y34581D01*
X393547Y34553D01*
X393491Y34525D01*
X393380Y34442D01*
X393241Y34358D01*
X393047Y34275D01*
X392853Y34220D01*
X392603Y34164D01*
X392353Y34136D01*
X392242D01*
X392103Y34164D01*
X391936Y34220D01*
X391742Y34275D01*
X391520Y34358D01*
X391270Y34497D01*
X391048Y34692D01*
X391020Y34719D01*
X390965Y34775D01*
X390882Y34858D01*
X390798Y34997D01*
X390687Y35191D01*
X390604Y35386D01*
X390548Y35635D01*
X390521Y35941D01*
Y48489D01*
X386606Y42409D01*
X386578Y42382D01*
X386495Y42298D01*
X386384Y42160D01*
X386217Y42049D01*
X385995Y41910D01*
X385746Y41771D01*
X385468Y41688D01*
X385135Y41660D01*
X384968D01*
X384802Y41688D01*
X384607Y41743D01*
X384357Y41854D01*
X384108Y41965D01*
X383858Y42160D01*
X383636Y42409D01*
X379721Y48462D01*
Y35941D01*
Y35913D01*
Y35802D01*
X379693Y35663D01*
X379638Y35469D01*
X379582Y35247D01*
X379471Y35025D01*
X379305Y34803D01*
X379110Y34581D01*
X379083Y34553D01*
X379027Y34525D01*
X378916Y34442D01*
X378750Y34358D01*
X378583Y34275D01*
X378361Y34220D01*
X378139Y34164D01*
X377889Y34136D01*
X377778D01*
X377639Y34164D01*
X377472Y34220D01*
X377250Y34275D01*
X377028Y34358D01*
X376806Y34497D01*
X376556Y34692D01*
X376529Y34719D01*
X376473Y34775D01*
X376390Y34858D01*
X376306Y34997D01*
X376223Y35191D01*
X376140Y35386D01*
X376084Y35635D01*
X376057Y35941D01*
Y52570D01*
Y52598D01*
Y52681D01*
X376084Y52820D01*
X376112Y52987D01*
X376195Y53181D01*
X376279Y53403D01*
X376417Y53625D01*
X376584Y53820D01*
X376612Y53847D01*
X376695Y53903D01*
X376806Y53986D01*
X376945Y54097D01*
X377139Y54208D01*
X377361Y54292D01*
X377611Y54347D01*
X377889Y54375D01*
X378638D01*
X378805Y54347D01*
X378999Y54292D01*
X379221Y54181D01*
X379471Y54070D01*
X379721Y53875D01*
X379943Y53625D01*
X385107Y46324D01*
X390271Y53625D01*
X390299Y53653D01*
X390382Y53736D01*
X390493Y53875D01*
X390659Y54014D01*
X390882Y54125D01*
X391131Y54264D01*
X391437Y54347D01*
X391770Y54375D01*
X392492D01*
X392631Y54347D01*
D02*
G37*
G36*
X410315Y43492D02*
X410593Y43437D01*
X410898Y43326D01*
X411203Y43131D01*
X411342Y42992D01*
X411481Y42826D01*
X411564Y42632D01*
X411648Y42437D01*
X411703Y42160D01*
X411731Y41882D01*
Y41854D01*
Y41799D01*
Y41743D01*
X411703Y41632D01*
X411648Y41354D01*
X411537Y41077D01*
X411315Y40771D01*
X411203Y40633D01*
X411037Y40494D01*
X410843Y40383D01*
X410620Y40327D01*
X410371Y40272D01*
X410065Y40244D01*
X398211D01*
X398100Y40272D01*
X397822Y40327D01*
X397545Y40438D01*
X397239Y40633D01*
X397100Y40771D01*
X396962Y40938D01*
X396850Y41132D01*
X396795Y41354D01*
X396739Y41604D01*
X396712Y41882D01*
Y41910D01*
Y41965D01*
Y42021D01*
X396739Y42132D01*
X396795Y42409D01*
X396906Y42715D01*
X397100Y42992D01*
X397239Y43131D01*
X397406Y43270D01*
X397600Y43381D01*
X397822Y43437D01*
X398072Y43492D01*
X398350Y43520D01*
X410232D01*
X410315Y43492D01*
D02*
G37*
G36*
X420198Y54375D02*
X420448Y54347D01*
X420754Y54319D01*
X421087Y54264D01*
X421475Y54153D01*
X421836Y54042D01*
X421864D01*
X421920Y54014D01*
X422003Y53959D01*
X422142Y53903D01*
X422308Y53847D01*
X422475Y53736D01*
X422891Y53514D01*
X423363Y53181D01*
X423863Y52793D01*
X424335Y52320D01*
X424779Y51765D01*
Y51737D01*
X424835Y51682D01*
X424890Y51599D01*
X424946Y51488D01*
X425029Y51349D01*
X425112Y51182D01*
X425307Y50766D01*
X425501Y50238D01*
X425668Y49683D01*
X425779Y49045D01*
X425834Y48351D01*
Y48323D01*
Y48267D01*
Y48156D01*
X425806Y47990D01*
Y47823D01*
X425779Y47601D01*
X425668Y47101D01*
X425501Y46518D01*
X425279Y45880D01*
X424946Y45241D01*
X424724Y44908D01*
X424502Y44603D01*
X418810Y37968D01*
X424474D01*
X424585Y37940D01*
X424890Y37884D01*
X425223Y37745D01*
X425556Y37523D01*
X425723Y37385D01*
X425862Y37218D01*
X425973Y36996D01*
X426056Y36746D01*
X426112Y36468D01*
X426139Y36163D01*
Y36135D01*
Y36080D01*
Y35996D01*
X426112Y35885D01*
X426056Y35580D01*
X425917Y35275D01*
X425695Y34941D01*
X425556Y34775D01*
X425362Y34636D01*
X425168Y34525D01*
X424918Y34442D01*
X424640Y34386D01*
X424307Y34358D01*
X415146D01*
X415035Y34386D01*
X414729Y34442D01*
X414368Y34553D01*
X413980Y34747D01*
X413813Y34886D01*
X413674Y35025D01*
X413563Y35219D01*
X413452Y35413D01*
X413397Y35663D01*
X413369Y35941D01*
Y35969D01*
Y36052D01*
X413397Y36191D01*
X413424Y36385D01*
X413508Y36579D01*
X413591Y36802D01*
X413730Y37051D01*
X413896Y37301D01*
X413924Y37329D01*
X414007Y37440D01*
X414174Y37607D01*
X414368Y37856D01*
X414618Y38134D01*
X414896Y38467D01*
X415229Y38856D01*
X415590Y39300D01*
X415979Y39744D01*
X416423Y40244D01*
X417339Y41327D01*
X418311Y42465D01*
X419310Y43631D01*
X419338Y43659D01*
X419421Y43798D01*
X419588Y43964D01*
X419754Y44214D01*
X419976Y44492D01*
X420226Y44825D01*
X420476Y45213D01*
X420754Y45602D01*
X421253Y46435D01*
X421503Y46879D01*
X421725Y47323D01*
X421920Y47712D01*
X422058Y48128D01*
X422142Y48489D01*
X422169Y48822D01*
Y48850D01*
Y48878D01*
X422142Y49017D01*
X422086Y49239D01*
X421975Y49517D01*
X421781Y49822D01*
X421670Y49961D01*
X421503Y50100D01*
X421309Y50266D01*
X421115Y50377D01*
X420865Y50516D01*
X420587Y50627D01*
X420559D01*
X420532Y50655D01*
X420337Y50710D01*
X420087Y50738D01*
X419810Y50766D01*
X419643D01*
X419477Y50738D01*
X419254Y50683D01*
X418977Y50599D01*
X418699Y50461D01*
X418422Y50294D01*
X418144Y50072D01*
X418116Y50044D01*
X418033Y49961D01*
X417922Y49794D01*
X417811Y49600D01*
X417672Y49350D01*
X417561Y49072D01*
X417478Y48739D01*
X417450Y48378D01*
Y48351D01*
Y48295D01*
Y48212D01*
X417422Y48101D01*
X417367Y47795D01*
X417228Y47490D01*
X417006Y47157D01*
X416867Y46990D01*
X416673Y46851D01*
X416478Y46740D01*
X416228Y46657D01*
X415951Y46602D01*
X415618Y46574D01*
X415451D01*
X415340Y46602D01*
X415035Y46657D01*
X414701Y46796D01*
X414368Y47018D01*
X414202Y47157D01*
X414063Y47323D01*
X413952Y47545D01*
X413869Y47795D01*
X413813Y48073D01*
X413785Y48378D01*
Y48406D01*
Y48489D01*
Y48628D01*
X413813Y48795D01*
X413841Y49017D01*
X413896Y49267D01*
X413952Y49544D01*
X414007Y49850D01*
X414230Y50544D01*
X414368Y50877D01*
X414563Y51238D01*
X414757Y51599D01*
X415007Y51960D01*
X415285Y52320D01*
X415618Y52654D01*
X415645Y52681D01*
X415701Y52737D01*
X415784Y52820D01*
X415923Y52931D01*
X416090Y53070D01*
X416312Y53209D01*
X416534Y53376D01*
X416811Y53542D01*
X417089Y53681D01*
X417422Y53847D01*
X418116Y54125D01*
X418505Y54236D01*
X418921Y54319D01*
X419366Y54375D01*
X419810Y54403D01*
X419976D01*
X420198Y54375D01*
D02*
G37*
G36*
X371281Y54097D02*
X371587Y54042D01*
X371920Y53903D01*
X372225Y53681D01*
X372392Y53542D01*
X372531Y53376D01*
X372642Y53153D01*
X372725Y52904D01*
X372781Y52626D01*
X372808Y52320D01*
Y52293D01*
Y52237D01*
Y52154D01*
X372781Y52043D01*
X372725Y51737D01*
X372586Y51432D01*
X372364Y51099D01*
X372225Y50932D01*
X372059Y50794D01*
X371837Y50683D01*
X371587Y50599D01*
X371309Y50544D01*
X371004Y50516D01*
X361926D01*
Y46352D01*
X367645D01*
X367811Y46324D01*
X368033Y46296D01*
X368283Y46268D01*
X368561Y46213D01*
X368866Y46130D01*
X369532Y45908D01*
X369893Y45769D01*
X370254Y45602D01*
X370615Y45408D01*
X370948Y45158D01*
X371309Y44880D01*
X371642Y44575D01*
X371670Y44547D01*
X371726Y44492D01*
X371809Y44408D01*
X371920Y44269D01*
X372059Y44103D01*
X372198Y43881D01*
X372364Y43659D01*
X372531Y43381D01*
X372697Y43103D01*
X372864Y42770D01*
X373142Y42049D01*
X373252Y41660D01*
X373336Y41243D01*
X373391Y40799D01*
X373419Y40355D01*
Y40327D01*
Y40244D01*
Y40105D01*
X373391Y39939D01*
X373364Y39716D01*
X373336Y39467D01*
X373280Y39189D01*
X373197Y38911D01*
X372975Y38245D01*
X372836Y37884D01*
X372669Y37523D01*
X372475Y37162D01*
X372225Y36802D01*
X371948Y36441D01*
X371642Y36107D01*
X371615Y36080D01*
X371559Y36024D01*
X371476Y35941D01*
X371337Y35830D01*
X371170Y35691D01*
X370948Y35552D01*
X370726Y35386D01*
X370449Y35247D01*
X370171Y35080D01*
X369838Y34914D01*
X369116Y34636D01*
X368727Y34525D01*
X368283Y34442D01*
X367867Y34386D01*
X367395Y34358D01*
X360010D01*
X359843Y34386D01*
X359677Y34414D01*
X359482Y34497D01*
X359260Y34581D01*
X359038Y34719D01*
X358816Y34886D01*
X358788Y34914D01*
X358733Y34997D01*
X358650Y35108D01*
X358566Y35247D01*
X358455Y35441D01*
X358372Y35663D01*
X358316Y35913D01*
X358289Y36163D01*
Y52320D01*
Y52348D01*
Y52432D01*
X358316Y52570D01*
X358344Y52737D01*
X358428Y52931D01*
X358511Y53153D01*
X358650Y53376D01*
X358816Y53570D01*
X358844Y53598D01*
X358927Y53653D01*
X359038Y53736D01*
X359177Y53847D01*
X359371Y53959D01*
X359594Y54042D01*
X359843Y54097D01*
X360121Y54125D01*
X371170D01*
X371281Y54097D01*
D02*
G37*
G36*
X440687Y54347D02*
X440909D01*
X441131Y54292D01*
X441437Y54236D01*
X441742Y54153D01*
X442075Y54042D01*
X442436Y53903D01*
X442797Y53736D01*
X443158Y53514D01*
X443519Y53264D01*
X443880Y52987D01*
X444213Y52626D01*
X444518Y52237D01*
X444796Y51765D01*
X444823Y51737D01*
X444879Y51599D01*
X444962Y51404D01*
X445101Y51154D01*
X445240Y50821D01*
X445406Y50461D01*
X445573Y50016D01*
X445767Y49517D01*
X445934Y48961D01*
X446101Y48378D01*
X446267Y47768D01*
X446406Y47129D01*
X446545Y46435D01*
X446628Y45713D01*
X446684Y44991D01*
X446711Y44242D01*
Y44186D01*
Y44075D01*
Y43853D01*
X446684Y43548D01*
X446656Y43215D01*
X446600Y42798D01*
X446545Y42326D01*
X446461Y41799D01*
X446378Y41243D01*
X446239Y40633D01*
X446101Y40022D01*
X445906Y39383D01*
X445684Y38717D01*
X445434Y38051D01*
X445129Y37385D01*
X444796Y36718D01*
X444768Y36690D01*
X444740Y36607D01*
X444657Y36468D01*
X444518Y36330D01*
X444379Y36107D01*
X444185Y35913D01*
X443963Y35663D01*
X443713Y35441D01*
X443435Y35191D01*
X443102Y34941D01*
X442741Y34747D01*
X442353Y34553D01*
X441908Y34386D01*
X441464Y34247D01*
X440937Y34164D01*
X440409Y34136D01*
X440271D01*
X440132Y34164D01*
X439910D01*
X439660Y34220D01*
X439382Y34275D01*
X439077Y34358D01*
X438744Y34469D01*
X438383Y34608D01*
X438022Y34775D01*
X437661Y34969D01*
X437272Y35219D01*
X436939Y35524D01*
X436606Y35858D01*
X436273Y36274D01*
X435995Y36718D01*
X435967Y36746D01*
X435912Y36885D01*
X435829Y37079D01*
X435690Y37329D01*
X435551Y37662D01*
X435384Y38051D01*
X435218Y38467D01*
X435051Y38967D01*
X434857Y39522D01*
X434690Y40105D01*
X434524Y40716D01*
X434385Y41382D01*
X434246Y42049D01*
X434163Y42770D01*
X434107Y43492D01*
X434080Y44242D01*
Y44297D01*
Y44436D01*
Y44630D01*
X434107Y44936D01*
X434135Y45297D01*
X434191Y45713D01*
X434246Y46185D01*
X434329Y46685D01*
X434413Y47240D01*
X434552Y47851D01*
X434690Y48462D01*
X434885Y49128D01*
X435107Y49766D01*
X435357Y50433D01*
X435662Y51099D01*
X435995Y51765D01*
X436023Y51793D01*
X436051Y51876D01*
X436162Y52015D01*
X436273Y52182D01*
X436412Y52376D01*
X436606Y52598D01*
X436828Y52820D01*
X437078Y53070D01*
X437383Y53320D01*
X437716Y53542D01*
X438077Y53764D01*
X438466Y53959D01*
X438910Y54125D01*
X439354Y54264D01*
X439882Y54347D01*
X440409Y54375D01*
X440548D01*
X440687Y54347D01*
D02*
G37*
G36*
X430498Y37968D02*
X430804Y37912D01*
X431137Y37773D01*
X431442Y37551D01*
X431609Y37412D01*
X431748Y37246D01*
X431858Y37024D01*
X431942Y36774D01*
X431997Y36496D01*
X432025Y36191D01*
Y35941D01*
Y35913D01*
Y35858D01*
Y35774D01*
X431997Y35663D01*
X431942Y35358D01*
X431803Y35052D01*
X431581Y34719D01*
X431442Y34553D01*
X431275Y34414D01*
X431053Y34303D01*
X430804Y34220D01*
X430526Y34164D01*
X430221Y34136D01*
X430054D01*
X429943Y34164D01*
X429638Y34220D01*
X429304Y34358D01*
X428971Y34581D01*
X428805Y34719D01*
X428666Y34886D01*
X428555Y35108D01*
X428472Y35358D01*
X428416Y35635D01*
X428388Y35941D01*
Y36191D01*
Y36219D01*
Y36274D01*
Y36357D01*
X428416Y36468D01*
X428499Y36774D01*
X428610Y37107D01*
X428833Y37412D01*
X428971Y37579D01*
X429166Y37718D01*
X429360Y37829D01*
X429610Y37912D01*
X429887Y37968D01*
X430221Y37995D01*
X430387D01*
X430498Y37968D01*
D02*
G37*
G36*
X411148Y29989D02*
X411398Y29961D01*
X411703Y29933D01*
X412036Y29878D01*
X412425Y29766D01*
X412786Y29655D01*
X412814D01*
X412869Y29628D01*
X412952Y29572D01*
X413091Y29517D01*
X413258Y29461D01*
X413424Y29350D01*
X413841Y29128D01*
X414313Y28795D01*
X414813Y28406D01*
X415285Y27934D01*
X415729Y27379D01*
Y27351D01*
X415784Y27296D01*
X415840Y27212D01*
X415895Y27101D01*
X415979Y26963D01*
X416062Y26796D01*
X416256Y26380D01*
X416451Y25852D01*
X416617Y25297D01*
X416728Y24658D01*
X416784Y23964D01*
Y23937D01*
Y23881D01*
Y23770D01*
X416756Y23603D01*
Y23437D01*
X416728Y23215D01*
X416617Y22715D01*
X416451Y22132D01*
X416228Y21493D01*
X415895Y20855D01*
X415673Y20522D01*
X415451Y20216D01*
X409760Y13581D01*
X415423D01*
X415534Y13553D01*
X415840Y13498D01*
X416173Y13359D01*
X416506Y13137D01*
X416673Y12998D01*
X416811Y12832D01*
X416922Y12609D01*
X417006Y12360D01*
X417061Y12082D01*
X417089Y11777D01*
Y11749D01*
Y11693D01*
Y11610D01*
X417061Y11499D01*
X417006Y11194D01*
X416867Y10888D01*
X416645Y10555D01*
X416506Y10388D01*
X416312Y10250D01*
X416117Y10139D01*
X415868Y10055D01*
X415590Y10000D01*
X415257Y9972D01*
X406095D01*
X405984Y10000D01*
X405679Y10055D01*
X405318Y10166D01*
X404929Y10361D01*
X404763Y10500D01*
X404624Y10638D01*
X404513Y10833D01*
X404402Y11027D01*
X404346Y11277D01*
X404318Y11554D01*
Y11582D01*
Y11666D01*
X404346Y11804D01*
X404374Y11999D01*
X404457Y12193D01*
X404540Y12415D01*
X404679Y12665D01*
X404846Y12915D01*
X404874Y12943D01*
X404957Y13054D01*
X405123Y13220D01*
X405318Y13470D01*
X405568Y13748D01*
X405845Y14081D01*
X406179Y14470D01*
X406539Y14914D01*
X406928Y15358D01*
X407372Y15858D01*
X408288Y16940D01*
X409260Y18079D01*
X410260Y19245D01*
X410287Y19272D01*
X410371Y19411D01*
X410537Y19578D01*
X410704Y19828D01*
X410926Y20105D01*
X411176Y20438D01*
X411426Y20827D01*
X411703Y21216D01*
X412203Y22049D01*
X412453Y22493D01*
X412675Y22937D01*
X412869Y23326D01*
X413008Y23742D01*
X413091Y24103D01*
X413119Y24436D01*
Y24464D01*
Y24492D01*
X413091Y24630D01*
X413036Y24853D01*
X412925Y25130D01*
X412730Y25436D01*
X412619Y25574D01*
X412453Y25713D01*
X412258Y25880D01*
X412064Y25991D01*
X411814Y26130D01*
X411537Y26241D01*
X411509D01*
X411481Y26268D01*
X411287Y26324D01*
X411037Y26352D01*
X410759Y26380D01*
X410593D01*
X410426Y26352D01*
X410204Y26296D01*
X409926Y26213D01*
X409649Y26074D01*
X409371Y25908D01*
X409094Y25686D01*
X409066Y25658D01*
X408983Y25574D01*
X408871Y25408D01*
X408760Y25213D01*
X408622Y24964D01*
X408511Y24686D01*
X408427Y24353D01*
X408400Y23992D01*
Y23964D01*
Y23909D01*
Y23825D01*
X408372Y23714D01*
X408316Y23409D01*
X408177Y23104D01*
X407955Y22771D01*
X407817Y22604D01*
X407622Y22465D01*
X407428Y22354D01*
X407178Y22271D01*
X406900Y22215D01*
X406567Y22188D01*
X406401D01*
X406290Y22215D01*
X405984Y22271D01*
X405651Y22410D01*
X405318Y22632D01*
X405151Y22771D01*
X405013Y22937D01*
X404902Y23159D01*
X404818Y23409D01*
X404763Y23687D01*
X404735Y23992D01*
Y24020D01*
Y24103D01*
Y24242D01*
X404763Y24408D01*
X404790Y24630D01*
X404846Y24880D01*
X404902Y25158D01*
X404957Y25463D01*
X405179Y26158D01*
X405318Y26491D01*
X405512Y26851D01*
X405707Y27212D01*
X405956Y27573D01*
X406234Y27934D01*
X406567Y28267D01*
X406595Y28295D01*
X406651Y28351D01*
X406734Y28434D01*
X406873Y28545D01*
X407039Y28684D01*
X407261Y28823D01*
X407483Y28989D01*
X407761Y29156D01*
X408039Y29295D01*
X408372Y29461D01*
X409066Y29739D01*
X409454Y29850D01*
X409871Y29933D01*
X410315Y29989D01*
X410759Y30016D01*
X410926D01*
X411148Y29989D01*
D02*
G37*
G36*
X381831D02*
X382081Y29961D01*
X382386Y29933D01*
X382719Y29878D01*
X383108Y29766D01*
X383469Y29655D01*
X383497D01*
X383552Y29628D01*
X383636Y29572D01*
X383774Y29517D01*
X383941Y29461D01*
X384108Y29350D01*
X384524Y29128D01*
X384996Y28795D01*
X385496Y28406D01*
X385968Y27934D01*
X386412Y27379D01*
Y27351D01*
X386467Y27296D01*
X386523Y27212D01*
X386578Y27101D01*
X386662Y26963D01*
X386745Y26796D01*
X386939Y26380D01*
X387134Y25852D01*
X387300Y25297D01*
X387411Y24658D01*
X387467Y23964D01*
Y23937D01*
Y23881D01*
Y23770D01*
X387439Y23603D01*
Y23437D01*
X387411Y23215D01*
X387300Y22715D01*
X387134Y22132D01*
X386912Y21493D01*
X386578Y20855D01*
X386356Y20522D01*
X386134Y20216D01*
X380443Y13581D01*
X386106D01*
X386217Y13553D01*
X386523Y13498D01*
X386856Y13359D01*
X387189Y13137D01*
X387356Y12998D01*
X387495Y12832D01*
X387606Y12609D01*
X387689Y12360D01*
X387744Y12082D01*
X387772Y11777D01*
Y11749D01*
Y11693D01*
Y11610D01*
X387744Y11499D01*
X387689Y11194D01*
X387550Y10888D01*
X387328Y10555D01*
X387189Y10388D01*
X386995Y10250D01*
X386800Y10139D01*
X386551Y10055D01*
X386273Y10000D01*
X385940Y9972D01*
X376778D01*
X376667Y10000D01*
X376362Y10055D01*
X376001Y10166D01*
X375612Y10361D01*
X375446Y10500D01*
X375307Y10638D01*
X375196Y10833D01*
X375085Y11027D01*
X375029Y11277D01*
X375002Y11554D01*
Y11582D01*
Y11666D01*
X375029Y11804D01*
X375057Y11999D01*
X375140Y12193D01*
X375224Y12415D01*
X375363Y12665D01*
X375529Y12915D01*
X375557Y12943D01*
X375640Y13054D01*
X375807Y13220D01*
X376001Y13470D01*
X376251Y13748D01*
X376529Y14081D01*
X376862Y14470D01*
X377223Y14914D01*
X377611Y15358D01*
X378055Y15858D01*
X378972Y16940D01*
X379943Y18079D01*
X380943Y19245D01*
X380970Y19272D01*
X381054Y19411D01*
X381220Y19578D01*
X381387Y19828D01*
X381609Y20105D01*
X381859Y20438D01*
X382109Y20827D01*
X382386Y21216D01*
X382886Y22049D01*
X383136Y22493D01*
X383358Y22937D01*
X383552Y23326D01*
X383691Y23742D01*
X383774Y24103D01*
X383802Y24436D01*
Y24464D01*
Y24492D01*
X383774Y24630D01*
X383719Y24853D01*
X383608Y25130D01*
X383414Y25436D01*
X383302Y25574D01*
X383136Y25713D01*
X382942Y25880D01*
X382747Y25991D01*
X382497Y26130D01*
X382220Y26241D01*
X382192D01*
X382164Y26268D01*
X381970Y26324D01*
X381720Y26352D01*
X381442Y26380D01*
X381276D01*
X381109Y26352D01*
X380887Y26296D01*
X380610Y26213D01*
X380332Y26074D01*
X380054Y25908D01*
X379777Y25686D01*
X379749Y25658D01*
X379666Y25574D01*
X379555Y25408D01*
X379444Y25213D01*
X379305Y24964D01*
X379194Y24686D01*
X379110Y24353D01*
X379083Y23992D01*
Y23964D01*
Y23909D01*
Y23825D01*
X379055Y23714D01*
X378999Y23409D01*
X378861Y23104D01*
X378638Y22771D01*
X378500Y22604D01*
X378305Y22465D01*
X378111Y22354D01*
X377861Y22271D01*
X377583Y22215D01*
X377250Y22188D01*
X377084D01*
X376973Y22215D01*
X376667Y22271D01*
X376334Y22410D01*
X376001Y22632D01*
X375834Y22771D01*
X375696Y22937D01*
X375585Y23159D01*
X375501Y23409D01*
X375446Y23687D01*
X375418Y23992D01*
Y24020D01*
Y24103D01*
Y24242D01*
X375446Y24408D01*
X375474Y24630D01*
X375529Y24880D01*
X375585Y25158D01*
X375640Y25463D01*
X375862Y26158D01*
X376001Y26491D01*
X376195Y26851D01*
X376390Y27212D01*
X376640Y27573D01*
X376917Y27934D01*
X377250Y28267D01*
X377278Y28295D01*
X377334Y28351D01*
X377417Y28434D01*
X377556Y28545D01*
X377722Y28684D01*
X377944Y28823D01*
X378167Y28989D01*
X378444Y29156D01*
X378722Y29295D01*
X379055Y29461D01*
X379749Y29739D01*
X380138Y29850D01*
X380554Y29933D01*
X380998Y29989D01*
X381442Y30016D01*
X381609D01*
X381831Y29989D01*
D02*
G37*
G36*
X428666Y30155D02*
X428916Y30072D01*
X429221Y29933D01*
X429360Y29822D01*
X429499Y29683D01*
X429638Y29544D01*
X429749Y29350D01*
X429860Y29100D01*
X429943Y28850D01*
X429971Y28545D01*
X429999Y28184D01*
Y11554D01*
Y11527D01*
Y11471D01*
Y11388D01*
X429971Y11277D01*
X429915Y10971D01*
X429776Y10666D01*
X429554Y10333D01*
X429416Y10166D01*
X429221Y10028D01*
X429027Y9917D01*
X428777Y9833D01*
X428499Y9778D01*
X428166Y9750D01*
X428000D01*
X427889Y9778D01*
X427583Y9833D01*
X427278Y9972D01*
X426945Y10194D01*
X426778Y10333D01*
X426639Y10500D01*
X426528Y10722D01*
X426445Y10971D01*
X426389Y11249D01*
X426362Y11554D01*
Y24408D01*
X422003Y19911D01*
X421975Y19883D01*
X421920Y19828D01*
X421809Y19744D01*
X421642Y19661D01*
X421475Y19550D01*
X421253Y19467D01*
X421003Y19411D01*
X420754Y19383D01*
X420643D01*
X420476Y19411D01*
X420309Y19467D01*
X420115Y19522D01*
X419893Y19606D01*
X419671Y19744D01*
X419449Y19939D01*
X419421Y19966D01*
X419366Y20050D01*
X419282Y20161D01*
X419199Y20327D01*
X419088Y20522D01*
X419005Y20744D01*
X418949Y20994D01*
X418921Y21244D01*
Y21271D01*
Y21355D01*
X418949Y21493D01*
X418977Y21660D01*
X419032Y21827D01*
X419116Y21993D01*
X419227Y22132D01*
X419393Y22243D01*
X426945Y29489D01*
X426972Y29517D01*
X427083Y29600D01*
X427222Y29711D01*
X427389Y29850D01*
X427611Y29961D01*
X427861Y30072D01*
X428138Y30155D01*
X428416Y30183D01*
X428555D01*
X428666Y30155D01*
D02*
G37*
G36*
X396434Y29961D02*
X396656D01*
X396878Y29905D01*
X397184Y29850D01*
X397489Y29766D01*
X397822Y29655D01*
X398183Y29517D01*
X398544Y29350D01*
X398905Y29128D01*
X399266Y28878D01*
X399627Y28600D01*
X399960Y28240D01*
X400265Y27851D01*
X400543Y27379D01*
X400570Y27351D01*
X400626Y27212D01*
X400709Y27018D01*
X400848Y26768D01*
X400987Y26435D01*
X401154Y26074D01*
X401320Y25630D01*
X401515Y25130D01*
X401681Y24575D01*
X401848Y23992D01*
X402014Y23381D01*
X402153Y22743D01*
X402292Y22049D01*
X402375Y21327D01*
X402431Y20605D01*
X402458Y19855D01*
Y19800D01*
Y19689D01*
Y19467D01*
X402431Y19161D01*
X402403Y18828D01*
X402347Y18412D01*
X402292Y17940D01*
X402209Y17412D01*
X402125Y16857D01*
X401986Y16246D01*
X401848Y15636D01*
X401653Y14997D01*
X401431Y14331D01*
X401181Y13664D01*
X400876Y12998D01*
X400543Y12332D01*
X400515Y12304D01*
X400487Y12221D01*
X400404Y12082D01*
X400265Y11943D01*
X400126Y11721D01*
X399932Y11527D01*
X399710Y11277D01*
X399460Y11055D01*
X399182Y10805D01*
X398849Y10555D01*
X398488Y10361D01*
X398100Y10166D01*
X397655Y10000D01*
X397211Y9861D01*
X396684Y9778D01*
X396156Y9750D01*
X396017D01*
X395879Y9778D01*
X395657D01*
X395407Y9833D01*
X395129Y9889D01*
X394824Y9972D01*
X394491Y10083D01*
X394130Y10222D01*
X393769Y10388D01*
X393408Y10583D01*
X393019Y10833D01*
X392686Y11138D01*
X392353Y11471D01*
X392020Y11888D01*
X391742Y12332D01*
X391714Y12360D01*
X391659Y12499D01*
X391576Y12693D01*
X391437Y12943D01*
X391298Y13276D01*
X391131Y13664D01*
X390965Y14081D01*
X390798Y14581D01*
X390604Y15136D01*
X390437Y15719D01*
X390271Y16330D01*
X390132Y16996D01*
X389993Y17662D01*
X389910Y18384D01*
X389854Y19106D01*
X389827Y19855D01*
Y19911D01*
Y20050D01*
Y20244D01*
X389854Y20549D01*
X389882Y20910D01*
X389938Y21327D01*
X389993Y21799D01*
X390076Y22299D01*
X390160Y22854D01*
X390299Y23465D01*
X390437Y24075D01*
X390632Y24742D01*
X390854Y25380D01*
X391104Y26046D01*
X391409Y26713D01*
X391742Y27379D01*
X391770Y27407D01*
X391798Y27490D01*
X391909Y27629D01*
X392020Y27795D01*
X392159Y27990D01*
X392353Y28212D01*
X392575Y28434D01*
X392825Y28684D01*
X393130Y28934D01*
X393463Y29156D01*
X393824Y29378D01*
X394213Y29572D01*
X394657Y29739D01*
X395101Y29878D01*
X395629Y29961D01*
X396156Y29989D01*
X396295D01*
X396434Y29961D01*
D02*
G37*
%LPC*%
G36*
X325290Y454540D02*
X314020D01*
Y446770D01*
X325290D01*
Y454540D01*
D02*
G37*
G36*
X311480D02*
X300210D01*
Y446770D01*
X311480D01*
Y454540D01*
D02*
G37*
G36*
X325290Y444230D02*
X314020D01*
Y436460D01*
X325290D01*
Y444230D01*
D02*
G37*
G36*
X311480D02*
X300210D01*
Y436460D01*
X311480D01*
Y444230D01*
D02*
G37*
G36*
X161540Y434540D02*
X150270D01*
Y426770D01*
X161540D01*
Y434540D01*
D02*
G37*
G36*
X147730D02*
X136460D01*
Y426770D01*
X147730D01*
Y434540D01*
D02*
G37*
G36*
X324750Y434000D02*
X300750D01*
Y417000D01*
X324750D01*
Y434000D01*
D02*
G37*
G36*
X161540Y424230D02*
X150270D01*
Y416460D01*
X161540D01*
Y424230D01*
D02*
G37*
G36*
X147730D02*
X136460D01*
Y416460D01*
X147730D01*
Y424230D01*
D02*
G37*
G36*
X161000Y414000D02*
X137000D01*
Y397000D01*
X161000D01*
Y414000D01*
D02*
G37*
G36*
Y394000D02*
X137000D01*
Y377000D01*
X161000D01*
Y394000D01*
D02*
G37*
G36*
Y374000D02*
X137000D01*
Y367771D01*
X133632Y366377D01*
X129687Y363959D01*
X126168Y360953D01*
X126168Y360953D01*
X126022Y360806D01*
X124591Y359409D01*
X124591Y359409D01*
X121638Y355811D01*
X119443Y351706D01*
X118092Y347251D01*
X117636Y342618D01*
X117672D01*
Y296003D01*
X117661D01*
X118016Y291491D01*
X119073Y287090D01*
X120805Y282909D01*
X122011Y280941D01*
X120571Y279463D01*
X118632Y280582D01*
X115580Y281400D01*
X112420D01*
X109368Y280582D01*
X106632Y279002D01*
X104398Y276768D01*
X102818Y274032D01*
X102000Y270980D01*
Y267820D01*
X102818Y264768D01*
X104398Y262032D01*
X106632Y259798D01*
X109368Y258218D01*
X111169Y257735D01*
Y255665D01*
X109368Y255182D01*
X106632Y253602D01*
X104398Y251368D01*
X102818Y248632D01*
X102000Y245580D01*
Y242420D01*
X102818Y239368D01*
X104398Y236632D01*
X106632Y234398D01*
X109368Y232818D01*
X111169Y232335D01*
Y230265D01*
X109368Y229782D01*
X106632Y228202D01*
X104398Y225968D01*
X102818Y223232D01*
X102000Y220180D01*
Y217020D01*
X102818Y213968D01*
X104398Y211232D01*
X106632Y208998D01*
X109368Y207418D01*
X111169Y206935D01*
Y204865D01*
X109368Y204382D01*
X106632Y202802D01*
X104398Y200568D01*
X102818Y197832D01*
X102000Y194780D01*
Y191620D01*
X102818Y188568D01*
X104398Y185832D01*
X106632Y183598D01*
X109368Y182018D01*
X111169Y181535D01*
Y179465D01*
X109368Y178982D01*
X106632Y177402D01*
X104398Y175168D01*
X102818Y172432D01*
X102000Y169380D01*
Y166220D01*
X102818Y163168D01*
X104398Y160432D01*
X106632Y158198D01*
X109368Y156618D01*
X110126Y156415D01*
Y154344D01*
X109160Y154085D01*
X106300Y152435D01*
X103966Y150100D01*
X102315Y147240D01*
X101460Y144051D01*
Y143670D01*
X114000D01*
X126540D01*
Y144051D01*
X125685Y147240D01*
X124035Y150100D01*
X121700Y152435D01*
X118840Y154085D01*
X117874Y154344D01*
Y156415D01*
X118632Y156618D01*
X121368Y158198D01*
X123602Y160432D01*
X125182Y163168D01*
X126000Y166220D01*
Y169380D01*
X125182Y172432D01*
X123602Y175168D01*
X121368Y177402D01*
X118632Y178982D01*
X116831Y179465D01*
Y181535D01*
X118632Y182018D01*
X121368Y183598D01*
X123602Y185832D01*
X125182Y188568D01*
X126000Y191620D01*
Y194780D01*
X125182Y197832D01*
X123602Y200568D01*
X121368Y202802D01*
X118632Y204382D01*
X116831Y204865D01*
Y206935D01*
X118632Y207418D01*
X121368Y208998D01*
X123602Y211232D01*
X125182Y213968D01*
X126000Y217020D01*
Y220180D01*
X125182Y223232D01*
X123602Y225968D01*
X121368Y228202D01*
X118632Y229782D01*
X116831Y230265D01*
Y232335D01*
X118632Y232818D01*
X121368Y234398D01*
X123602Y236632D01*
X125182Y239368D01*
X126000Y242420D01*
Y245580D01*
X125182Y248632D01*
X123602Y251368D01*
X121368Y253602D01*
X118632Y255182D01*
X116831Y255665D01*
Y257735D01*
X118632Y258218D01*
X121368Y259798D01*
X123602Y262032D01*
X125182Y264768D01*
X126000Y267820D01*
Y270980D01*
X125293Y273620D01*
X127042Y274591D01*
X127146Y274477D01*
X127704Y273835D01*
X129123Y272105D01*
X130324Y269858D01*
X131099Y268409D01*
X132315Y264399D01*
X132708Y260411D01*
X132672Y260229D01*
Y148000D01*
X132690Y147907D01*
X132395Y144905D01*
X131492Y141928D01*
X130025Y139185D01*
X129284Y138282D01*
X128033Y136800D01*
X128032Y136800D01*
X127423Y136605D01*
X126985Y136846D01*
X125858Y138203D01*
X126540Y140749D01*
Y141130D01*
X114000D01*
X101460D01*
Y140749D01*
X102315Y137560D01*
X103966Y134700D01*
X106300Y132366D01*
X109160Y130715D01*
X110126Y130456D01*
Y128385D01*
X109368Y128182D01*
X106632Y126602D01*
X104398Y124368D01*
X102818Y121632D01*
X102000Y118580D01*
Y115420D01*
X102818Y112368D01*
X104398Y109632D01*
X106632Y107398D01*
X109368Y105818D01*
X112420Y105000D01*
X115580D01*
X118632Y105818D01*
X121368Y107398D01*
X123602Y109632D01*
X125182Y112368D01*
X126000Y115420D01*
Y118580D01*
X125182Y121632D01*
X124896Y122128D01*
X132386Y129618D01*
X133827Y131006D01*
X133827Y131006D01*
X136815Y134648D01*
X137529Y135984D01*
X137768Y136341D01*
X137796Y136483D01*
X139036Y138803D01*
X140404Y143311D01*
X140866Y148000D01*
X140828D01*
Y260229D01*
X140841D01*
X140478Y264842D01*
X139397Y269342D01*
X137771Y273268D01*
X137768Y273285D01*
X137759Y273299D01*
X137627Y273618D01*
X135209Y277563D01*
X132203Y281082D01*
X132203Y281082D01*
X130876Y282532D01*
X129270Y284488D01*
X127355Y288072D01*
X126175Y291960D01*
X125794Y295831D01*
X125828Y296003D01*
Y342618D01*
X125811Y342707D01*
X126101Y345658D01*
X126988Y348580D01*
X128428Y351274D01*
X130309Y353566D01*
X130384Y353616D01*
X131944Y355177D01*
X133415Y356454D01*
X135000Y357754D01*
X135259Y357711D01*
X137000Y357000D01*
X137000Y357000D01*
X137000Y357000D01*
X161000D01*
Y374000D01*
D02*
G37*
G36*
X427230Y347134D02*
X423750D01*
X421881Y346762D01*
X420297Y345703D01*
X419238Y344119D01*
X419119Y343520D01*
X427230D01*
Y347134D01*
D02*
G37*
G36*
X161000Y334000D02*
X137000D01*
Y317000D01*
X161000D01*
Y334000D01*
D02*
G37*
G36*
X325290Y314540D02*
X314020D01*
Y306770D01*
X325290D01*
Y314540D01*
D02*
G37*
G36*
X311480D02*
X300210D01*
Y306770D01*
X311480D01*
Y314540D01*
D02*
G37*
G36*
X161000Y314000D02*
X137000D01*
Y297000D01*
X161000D01*
Y314000D01*
D02*
G37*
G36*
X325290Y304230D02*
X314020D01*
Y296460D01*
X325290D01*
Y304230D01*
D02*
G37*
G36*
X311480D02*
X300210D01*
Y296460D01*
X311480D01*
Y304230D01*
D02*
G37*
G36*
X172305Y268300D02*
X168055D01*
X163857Y267635D01*
X159816Y266322D01*
X156029Y264393D01*
X152591Y261894D01*
X149586Y258889D01*
X147087Y255451D01*
X145158Y251664D01*
X143845Y247623D01*
X143180Y243425D01*
Y239175D01*
X143845Y234977D01*
X145158Y230936D01*
X147087Y227149D01*
X149586Y223711D01*
X152591Y220706D01*
X156029Y218207D01*
X159816Y216278D01*
X163857Y214965D01*
X168055Y214300D01*
X172305D01*
X176502Y214965D01*
X180544Y216278D01*
X184331Y218207D01*
X187769Y220706D01*
X190774Y223711D01*
X193272Y227149D01*
X195202Y230936D01*
X196515Y234977D01*
X197180Y239175D01*
Y243425D01*
X196515Y247623D01*
X195202Y251664D01*
X193272Y255451D01*
X190774Y258889D01*
X187769Y261894D01*
X184331Y264393D01*
X180544Y266322D01*
X176502Y267635D01*
X172305Y268300D01*
D02*
G37*
G36*
X374503Y188378D02*
X368483D01*
Y182608D01*
X374503D01*
Y188378D01*
D02*
G37*
G36*
Y180068D02*
X368483D01*
Y174298D01*
X374503D01*
Y180068D01*
D02*
G37*
G36*
X455290Y173480D02*
X450020D01*
Y170710D01*
X455290D01*
Y173480D01*
D02*
G37*
G36*
X264401Y107790D02*
X264020D01*
Y96520D01*
X275290D01*
Y96901D01*
X274435Y100090D01*
X272785Y102950D01*
X270450Y105285D01*
X267590Y106935D01*
X264401Y107790D01*
D02*
G37*
G36*
X261480D02*
X261099D01*
X257910Y106935D01*
X255050Y105285D01*
X252715Y102950D01*
X251065Y100090D01*
X250210Y96901D01*
Y96520D01*
X261480D01*
Y107790D01*
D02*
G37*
G36*
X404746Y89805D02*
X399476D01*
Y84535D01*
X404746D01*
Y89805D01*
D02*
G37*
G36*
X275290Y93980D02*
X264020D01*
Y82710D01*
X264401D01*
X267590Y83565D01*
X270450Y85216D01*
X272785Y87550D01*
X274435Y90410D01*
X275290Y93599D01*
Y93980D01*
D02*
G37*
G36*
X261480D02*
X250210D01*
Y93599D01*
X251065Y90410D01*
X252715Y87550D01*
X255050Y85216D01*
X257910Y83565D01*
X261099Y82710D01*
X261480D01*
Y93980D01*
D02*
G37*
G36*
X404746Y81995D02*
X399476D01*
Y76725D01*
X404746D01*
Y81995D01*
D02*
G37*
G36*
X392458Y114547D02*
X382559Y104648D01*
X383268Y103939D01*
X381928Y102191D01*
X381796Y101875D01*
X381101Y101587D01*
X379413Y99899D01*
X378500Y97694D01*
Y95307D01*
X379413Y93101D01*
X380856Y91658D01*
Y89319D01*
X378869D01*
Y76819D01*
X378869Y75319D01*
X378869Y73819D01*
Y61319D01*
X391869D01*
X392206Y62265D01*
X404206D01*
Y74265D01*
X394644D01*
X393434Y76265D01*
X393675Y76725D01*
X396936D01*
Y83265D01*
Y89805D01*
X391666D01*
Y89319D01*
X389013D01*
Y92528D01*
X389586Y93101D01*
X390500Y95307D01*
Y97694D01*
X390279Y98226D01*
X399529Y107476D01*
X392458Y114547D01*
D02*
G37*
G36*
X464929Y256219D02*
X464878D01*
Y247449D01*
X473647D01*
Y247500D01*
X472963Y250054D01*
X471642Y252343D01*
X469772Y254213D01*
X467483Y255534D01*
X464929Y256219D01*
D02*
G37*
G36*
X462337D02*
X462286D01*
X459732Y255534D01*
X457443Y254213D01*
X455574Y252343D01*
X454252Y250054D01*
X453568Y247500D01*
Y247449D01*
X462337D01*
Y256219D01*
D02*
G37*
G36*
X420790Y244290D02*
X415020D01*
Y238270D01*
X420790D01*
Y244290D01*
D02*
G37*
G36*
X412480D02*
X406710D01*
Y238270D01*
X412480D01*
Y244290D01*
D02*
G37*
G36*
X473647Y244909D02*
X464878D01*
Y236139D01*
X464929D01*
X467483Y236823D01*
X469772Y238145D01*
X471642Y240014D01*
X472963Y242303D01*
X473647Y244857D01*
Y244909D01*
D02*
G37*
G36*
X462337D02*
X453568D01*
Y244857D01*
X454252Y242303D01*
X455574Y240014D01*
X457443Y238145D01*
X459732Y236823D01*
X462286Y236139D01*
X462337D01*
Y244909D01*
D02*
G37*
G36*
X476226Y220161D02*
X471969Y215904D01*
X476049Y211824D01*
X480305Y216081D01*
X476226Y220161D01*
D02*
G37*
G36*
X498460Y204512D02*
Y198742D01*
X504480D01*
Y204512D01*
X498460D01*
D02*
G37*
G36*
X504480Y196202D02*
X498460D01*
Y190432D01*
X504480D01*
Y196202D01*
D02*
G37*
G36*
X524980Y176650D02*
X524578D01*
X521348Y175784D01*
X518452Y174112D01*
X516087Y171748D01*
X514416Y168852D01*
X513550Y165622D01*
Y165220D01*
X524980D01*
Y176650D01*
D02*
G37*
G36*
X490040Y170480D02*
X484020D01*
Y164710D01*
X490040D01*
Y170480D01*
D02*
G37*
G36*
X367395Y42715D02*
X361926D01*
Y37968D01*
X367561D01*
X367728Y37995D01*
X367978Y38051D01*
X368228Y38134D01*
X368505Y38273D01*
X368783Y38439D01*
X369061Y38661D01*
X369088Y38689D01*
X369171Y38800D01*
X369282Y38939D01*
X369421Y39134D01*
X369532Y39383D01*
X369644Y39661D01*
X369727Y39994D01*
X369754Y40355D01*
Y40411D01*
Y40522D01*
X369727Y40688D01*
X369671Y40938D01*
X369588Y41188D01*
X369449Y41466D01*
X369282Y41743D01*
X369061Y42021D01*
X369033Y42049D01*
X368949Y42132D01*
X368783Y42243D01*
X368588Y42382D01*
X368339Y42493D01*
X368061Y42604D01*
X367756Y42687D01*
X367395Y42715D01*
D02*
G37*
G36*
X440409Y50738D02*
X440271D01*
X440132Y50710D01*
X439965Y50655D01*
X439771Y50571D01*
X439576Y50433D01*
X439382Y50266D01*
X439216Y50044D01*
X439188Y50016D01*
X439160Y49933D01*
X439077Y49766D01*
X438993Y49572D01*
X438882Y49322D01*
X438744Y49017D01*
X438605Y48684D01*
X438494Y48323D01*
X438355Y47906D01*
X438216Y47434D01*
X438077Y46962D01*
X437966Y46463D01*
X437800Y45380D01*
X437772Y44825D01*
X437744Y44242D01*
Y44214D01*
Y44103D01*
Y43936D01*
X437772Y43714D01*
X437800Y43437D01*
X437827Y43131D01*
X437855Y42770D01*
X437938Y42354D01*
X437994Y41937D01*
X438105Y41466D01*
X438355Y40494D01*
X438521Y39994D01*
X438744Y39494D01*
X438966Y38967D01*
X439216Y38467D01*
X439243Y38439D01*
X439299Y38356D01*
X439382Y38245D01*
X439521Y38106D01*
X439688Y37968D01*
X439882Y37856D01*
X440132Y37773D01*
X440409Y37745D01*
X440548D01*
X440687Y37773D01*
X440854Y37829D01*
X441048Y37912D01*
X441242Y38051D01*
X441437Y38217D01*
X441603Y38467D01*
X441631Y38495D01*
X441659Y38578D01*
X441742Y38745D01*
X441825Y38939D01*
X441936Y39189D01*
X442075Y39494D01*
X442214Y39828D01*
X442353Y40188D01*
X442464Y40605D01*
X442603Y41049D01*
X442741Y41549D01*
X442852Y42049D01*
X443019Y43103D01*
X443047Y43659D01*
X443074Y44242D01*
Y44269D01*
Y44381D01*
Y44547D01*
X443047Y44769D01*
X443019Y45047D01*
X442991Y45352D01*
X442963Y45713D01*
X442880Y46130D01*
X442797Y46546D01*
X442714Y47018D01*
X442436Y47990D01*
X442269Y48489D01*
X442075Y49017D01*
X441853Y49544D01*
X441575Y50044D01*
X441548Y50072D01*
X441492Y50155D01*
X441409Y50266D01*
X441298Y50405D01*
X441131Y50516D01*
X440909Y50627D01*
X440687Y50710D01*
X440409Y50738D01*
D02*
G37*
G36*
X396156Y26352D02*
X396017D01*
X395879Y26324D01*
X395712Y26268D01*
X395518Y26185D01*
X395323Y26046D01*
X395129Y25880D01*
X394963Y25658D01*
X394935Y25630D01*
X394907Y25547D01*
X394824Y25380D01*
X394740Y25186D01*
X394629Y24936D01*
X394491Y24630D01*
X394352Y24297D01*
X394241Y23937D01*
X394102Y23520D01*
X393963Y23048D01*
X393824Y22576D01*
X393713Y22076D01*
X393547Y20994D01*
X393519Y20438D01*
X393491Y19855D01*
Y19828D01*
Y19717D01*
Y19550D01*
X393519Y19328D01*
X393547Y19050D01*
X393574Y18745D01*
X393602Y18384D01*
X393685Y17968D01*
X393741Y17551D01*
X393852Y17079D01*
X394102Y16107D01*
X394268Y15608D01*
X394491Y15108D01*
X394713Y14581D01*
X394963Y14081D01*
X394990Y14053D01*
X395046Y13970D01*
X395129Y13859D01*
X395268Y13720D01*
X395434Y13581D01*
X395629Y13470D01*
X395879Y13387D01*
X396156Y13359D01*
X396295D01*
X396434Y13387D01*
X396601Y13442D01*
X396795Y13526D01*
X396989Y13664D01*
X397184Y13831D01*
X397350Y14081D01*
X397378Y14109D01*
X397406Y14192D01*
X397489Y14359D01*
X397572Y14553D01*
X397683Y14803D01*
X397822Y15108D01*
X397961Y15441D01*
X398100Y15802D01*
X398211Y16219D01*
X398350Y16663D01*
X398488Y17162D01*
X398599Y17662D01*
X398766Y18717D01*
X398794Y19272D01*
X398821Y19855D01*
Y19883D01*
Y19994D01*
Y20161D01*
X398794Y20383D01*
X398766Y20661D01*
X398738Y20966D01*
X398711Y21327D01*
X398627Y21743D01*
X398544Y22160D01*
X398461Y22632D01*
X398183Y23603D01*
X398016Y24103D01*
X397822Y24630D01*
X397600Y25158D01*
X397322Y25658D01*
X397295Y25686D01*
X397239Y25769D01*
X397156Y25880D01*
X397045Y26019D01*
X396878Y26130D01*
X396656Y26241D01*
X396434Y26324D01*
X396156Y26352D01*
D02*
G37*
%LPD*%
D10*
X391044Y106062D02*
D03*
X401297Y129750D02*
D03*
X414732Y116315D02*
D03*
D11*
X385369Y68069D02*
D03*
Y82569D02*
D03*
X413750Y222500D02*
D03*
X413750Y237000D02*
D03*
X404000Y196750D02*
D03*
Y182250D02*
D03*
X410000Y330250D02*
D03*
X410000Y315750D02*
D03*
D12*
X423627Y126623D02*
D03*
X413373Y136876D02*
D03*
D13*
X398206Y68265D02*
D03*
Y83265D02*
D03*
D14*
X467000Y186000D02*
D03*
X481500D02*
D03*
X375773Y181338D02*
D03*
X390273D02*
D03*
X375543Y197027D02*
D03*
X390043D02*
D03*
X414261Y210463D02*
D03*
X428761D02*
D03*
X457750Y210500D02*
D03*
X443250D02*
D03*
X482690Y197472D02*
D03*
X497190Y197472D02*
D03*
X443000Y222500D02*
D03*
X428500D02*
D03*
X468250Y171750D02*
D03*
X482750D02*
D03*
D15*
X484750Y124250D02*
D03*
X449750D02*
D03*
D16*
X433750Y182250D02*
D03*
D17*
X441250Y167250D02*
D03*
X436250D02*
D03*
X431250D02*
D03*
X426250Y167250D02*
D03*
Y197250D02*
D03*
X431250D02*
D03*
X436250D02*
D03*
X441250D02*
D03*
D18*
X418750Y174750D02*
D03*
X418750Y179750D02*
D03*
Y184750D02*
D03*
X418750Y189750D02*
D03*
X448750D02*
D03*
Y184750D02*
D03*
Y179750D02*
D03*
Y174750D02*
D03*
D19*
X415936Y154064D02*
D03*
X423007Y146993D02*
D03*
X430962Y139038D02*
D03*
D20*
X463607Y246179D02*
D03*
D21*
X312750Y305500D02*
D03*
X312750Y325500D02*
D03*
Y345500D02*
D03*
X312750Y365500D02*
D03*
X312750Y385500D02*
D03*
X312750Y405500D02*
D03*
Y425500D02*
D03*
Y445500D02*
D03*
X149000D02*
D03*
Y425500D02*
D03*
Y405500D02*
D03*
Y385500D02*
D03*
Y365500D02*
D03*
Y345500D02*
D03*
Y325500D02*
D03*
Y305500D02*
D03*
D22*
X487500Y283750D02*
D03*
Y290250D02*
D03*
Y296750D02*
D03*
Y303250D02*
D03*
Y309750D02*
D03*
Y316250D02*
D03*
Y322750D02*
D03*
Y329250D02*
D03*
Y335750D02*
D03*
Y342250D02*
D03*
X428500Y283750D02*
D03*
Y290250D02*
D03*
Y296750D02*
D03*
Y303250D02*
D03*
Y309750D02*
D03*
Y316250D02*
D03*
Y322750D02*
D03*
Y329250D02*
D03*
Y335750D02*
D03*
Y342250D02*
D03*
D23*
X476049Y210028D02*
D03*
X465796Y199775D02*
D03*
D46*
X130546Y445500D02*
G03*
X114250Y438750I0J-23046D01*
G01*
X109190Y433689D02*
G03*
X101750Y415729I17960J-17960D01*
G01*
X74103Y377000D02*
G03*
X92063Y384440I0J25400D01*
G01*
X96219Y388596D02*
G03*
X101750Y401958I-13376J13362D01*
G01*
X96212Y388589D02*
G03*
X96219Y388596I-13369J13369D01*
G01*
X11767Y314557D02*
X81880D01*
X11767Y239557D02*
X81880D01*
X11524Y139800D02*
X11767Y139557D01*
X11524Y239800D02*
X11767Y239557D01*
Y252057D02*
X81880D01*
X11767Y139557D02*
X81880D01*
X11767Y214557D02*
X81880D01*
X11767Y202057D02*
X81880D01*
X11767Y177057D02*
X81880D01*
X11524Y252300D02*
X11767Y252057D01*
X11524Y214800D02*
X11767Y214557D01*
X11524Y202300D02*
X11767Y202057D01*
X11524Y339800D02*
X11767Y339557D01*
X11524Y177300D02*
X11767Y177057D01*
X11524Y189800D02*
X11767Y189557D01*
X11524Y227300D02*
X11767Y227057D01*
X11524Y277300D02*
X11767Y277057D01*
X11524Y164800D02*
X11767Y164557D01*
X11524Y152300D02*
X11767Y152057D01*
Y227057D02*
X81880D01*
X11767Y339557D02*
X81880D01*
X11767Y289557D02*
X81880D01*
X11767Y189557D02*
X81880D01*
X11767Y277057D02*
X81880D01*
X11767Y164557D02*
X81880D01*
X11767Y152057D02*
X81880D01*
X11524Y289800D02*
X11767Y289557D01*
X11524Y264800D02*
X11767Y264557D01*
X81880D01*
X11524Y314800D02*
X11767Y314557D01*
X11524Y327300D02*
X11767Y327057D01*
X81880D01*
X11524Y352300D02*
X11767Y352057D01*
X81880D01*
X11524Y302300D02*
X11767Y302057D01*
X81880D01*
X81653Y114097D02*
X81750Y114000D01*
X20369Y114097D02*
X81653D01*
X11566Y126597D02*
X11657Y126688D01*
X81584D01*
X81724Y126829D01*
X130546Y445500D02*
X149000D01*
X109190Y433689D02*
X114250Y438750D01*
X101750Y401958D02*
Y415729D01*
X92063Y384440D02*
X96212Y388589D01*
X11137Y377000D02*
X74103D01*
X10894Y377243D02*
X11137Y377000D01*
X10894Y364743D02*
X11137Y364500D01*
X81250D01*
D47*
X386634Y101652D02*
G03*
X384500Y96500I5152J-5152D01*
G01*
X134000Y137901D02*
G03*
X136750Y148000I-17167J10099D01*
G01*
X130916Y133916D02*
G03*
X134000Y137901I-14084J14084D01*
G01*
Y271724D02*
G03*
X129311Y278190I-22650J-11495D01*
G01*
X136750Y260229D02*
G03*
X134000Y271724I-25400J0D01*
G01*
X121750Y296003D02*
G03*
X129000Y278500I24753J0D01*
G01*
X127500Y356500D02*
G03*
X121750Y342618I13882J-13882D01*
G01*
X147021Y365500D02*
G03*
X129060Y358060I0J-25400D01*
G01*
X473000Y316750D02*
X474082D01*
X475582Y315250D01*
X481615D01*
X482615Y316250D01*
X428500D02*
X473000D01*
X482615D02*
X487500D01*
X384500Y96500D02*
X384935Y96065D01*
X414732Y116315D02*
X423627Y125209D01*
X386634Y101652D02*
X391044Y106062D01*
X384935Y83004D02*
Y96065D01*
Y83004D02*
X385369Y82569D01*
X423627Y125209D02*
Y126623D01*
X262750Y145250D02*
X265812Y148312D01*
X272155D02*
X273093Y149250D01*
X413115D02*
X415745Y151880D01*
X265812Y148312D02*
X272155D01*
X273093Y149250D02*
X413115D01*
X415745Y151880D02*
Y153872D01*
X415936Y154064D01*
X400750Y315750D02*
X410000D01*
X114000Y117000D02*
X130916Y133916D01*
X136750Y148000D02*
Y260229D01*
X129000Y278500D02*
X129311Y278190D01*
X121750Y296003D02*
Y342618D01*
X127500Y356500D02*
X129060Y358060D01*
X147021Y365500D02*
X149000D01*
X526250Y163950D02*
X526550Y164250D01*
X410500Y316250D02*
X428500D01*
X410000Y315750D02*
X410500Y316250D01*
D48*
X414732Y116315D02*
G03*
X415649Y114101I3132J0D01*
G01*
X422795Y146480D02*
G03*
X422796Y146481I-513J513D01*
G01*
D02*
G03*
X423007Y146993I-514J512D01*
G01*
X430484Y139516D02*
Y141637D01*
X429936Y142186D02*
X430484Y141637D01*
X429936Y142186D02*
X433732Y145982D01*
X430484Y139516D02*
X430962Y139038D01*
X433732Y145982D02*
Y155975D01*
X436250Y158492D01*
Y167250D01*
X484750Y127786D02*
X493500Y136536D01*
X497035D02*
X499050Y138550D01*
X526250D01*
X493500Y136536D02*
X497035D01*
X484750Y124250D02*
Y127786D01*
X471272Y175000D02*
X475245Y179273D01*
X476787Y180932D02*
X478478Y182750D01*
Y182750D02*
X481500Y186000D01*
X468250Y171750D02*
X471272Y175000D01*
X475245Y179273D02*
X476787Y180932D01*
X478478Y182750D02*
Y182750D01*
X460256Y179744D02*
X465000Y175000D01*
X468250Y171750D01*
X460250Y179750D02*
X460256Y179744D01*
X430962Y139038D02*
X431639D01*
X475750Y194750D02*
X479968D01*
X482690Y197472D01*
X470500Y189500D02*
X475750Y194750D01*
X470500Y189250D02*
Y189500D01*
X467250Y186000D02*
X470500Y189250D01*
X467000Y186000D02*
X467250D01*
X464775Y199775D02*
X465796D01*
X464623Y199624D02*
X464775Y199775D01*
X464623Y199508D02*
Y199624D01*
X455115Y190000D02*
X464623Y199508D01*
X449000Y190000D02*
X455115D01*
X448750Y189750D02*
X449000Y190000D01*
X415649Y114101D02*
X420250Y109500D01*
X413197Y137053D02*
X413373Y136876D01*
X408601Y137053D02*
X413197D01*
X401297Y129750D02*
X408601Y137053D01*
X413373Y137359D02*
X422495Y146480D01*
X413373Y136876D02*
Y137359D01*
X422495Y146480D02*
X422795D01*
X423115Y146844D02*
Y146885D01*
X423007Y146993D02*
X423115Y146885D01*
X385369Y68069D02*
X385938Y67500D01*
X397441D02*
X398206Y68265D01*
X385938Y67500D02*
X397441D01*
X448750Y184750D02*
X465750D01*
X467000Y186000D01*
X478000Y182500D02*
Y182750D01*
X481250Y186000D01*
X481500D01*
X413224Y211500D02*
Y221974D01*
X413750Y222500D01*
X399786Y164536D02*
X412250Y177000D01*
X399658Y164536D02*
X399786D01*
X418500Y179500D02*
X418750Y179750D01*
X414464Y179500D02*
X418500D01*
X412250Y177285D02*
X414464Y179500D01*
X412250Y177000D02*
Y177285D01*
X424939Y159000D02*
X428840D01*
X418596Y152657D02*
X424939Y159000D01*
X428840D02*
X431250Y161410D01*
Y167250D01*
X432641Y138035D02*
X433249D01*
X431639Y139038D02*
X432641Y138035D01*
X439750Y207000D02*
Y207250D01*
X436250Y197250D02*
Y203500D01*
X443000Y210500D02*
X443250D01*
X439750Y207250D02*
X443000Y210500D01*
X436250Y203500D02*
X439750Y207000D01*
X443250Y210500D02*
X443250Y210500D01*
X443250Y222250D02*
X443250Y210500D01*
X443000Y222500D02*
X443250Y222250D01*
X428761Y210463D02*
Y222239D01*
X428500Y222500D02*
X428761Y222239D01*
X390273Y181338D02*
X391185Y182250D01*
X404000D01*
X390043Y197027D02*
X390320Y196750D01*
X404000D01*
X404000Y196750D01*
Y182250D02*
X406500Y184750D01*
X418750Y184750D01*
X412875Y189750D02*
X418750Y189750D01*
X404000Y196500D02*
Y196750D01*
X407250Y193250D02*
X409375Y193250D01*
X412875Y189750D01*
X404000Y196500D02*
X407250Y193250D01*
X481250Y127750D02*
Y151500D01*
Y127750D02*
X484750Y124250D01*
X448750Y179750D02*
X460250D01*
X375201Y197369D02*
Y207267D01*
Y197369D02*
X375543Y197027D01*
X428500Y222500D02*
Y233000D01*
X431250Y197250D02*
Y207974D01*
X428761Y210463D02*
X431250Y207974D01*
X413224Y211500D02*
X417511Y207213D01*
X418787Y207213D01*
X426250Y199750D01*
X426250Y197250D01*
D49*
X339500Y363750D02*
G03*
X335434Y373566I-13882J0D01*
G01*
X199750Y339000D02*
G03*
X184058Y345500I-15692J-15692D01*
G01*
X377017Y270392D02*
G03*
X384375Y271556I0J23841D01*
G01*
X260918Y277832D02*
G03*
X278879Y270392I17960J17960D01*
G01*
X336000Y340750D02*
G03*
X324533Y345500I-11467J-11467D01*
G01*
X359329Y306899D02*
G03*
X351890Y324860I-25400J0D01*
G01*
X355902Y286577D02*
G03*
X348463Y304537I-25400J0D01*
G01*
X334939Y318060D02*
G03*
X316979Y325500I-17960J-17960D01*
G01*
X370000Y306479D02*
G03*
X362561Y324440I-25400J0D01*
G01*
X327687Y359313D02*
G03*
X312750Y365500I-14937J-14937D01*
G01*
X340270Y357980D02*
G03*
X345946Y348189I21237J5770D01*
G01*
X339500Y363750D02*
G03*
X340270Y357980I22007J0D01*
G01*
X330939Y378060D02*
G03*
X312979Y385500I-17960J-17960D01*
G01*
X347500Y368416D02*
G03*
X354939Y350455I25400J0D01*
G01*
X347500Y370229D02*
G03*
X340061Y388190I-25400J0D01*
G01*
X329821Y398429D02*
G03*
X312750Y405500I-17071J-17071D01*
G01*
X394955Y310439D02*
G03*
X412916Y303000I17960J17960D01*
G01*
X415235Y290250D02*
G03*
X400750Y284250I0J-20485D01*
G01*
X384375Y271556D02*
G03*
X393875Y277375I-7358J22677D01*
G01*
X464310Y351060D02*
G03*
X471750Y369021I-17960J17960D01*
G01*
X432729Y329250D02*
G03*
X441328Y330750I0J25400D01*
G01*
X431979Y329250D02*
G03*
X449939Y336689I0J25400D01*
G01*
X442499Y349549D02*
G03*
X442500Y349750I-13999J201D01*
G01*
X440953Y343354D02*
G03*
X442499Y349549I-12453J6396D01*
G01*
X428500Y335750D02*
G03*
X440953Y343354I0J14000D01*
G01*
X519929Y330621D02*
G03*
X507488Y335770I-12441J-12456D01*
G01*
X519936Y330614D02*
G03*
X519929Y330621I-12448J-12448D01*
G01*
X519297Y345273D02*
G03*
X525239Y349689I-12018J22377D01*
G01*
X507279Y342250D02*
G03*
X519297Y345273I0J25400D01*
G01*
X480741Y263752D02*
G03*
X481791Y263730I1050J25378D01*
G01*
X503229Y271229D02*
G03*
X497500Y267000I11171J-21128D01*
G01*
X514399Y274000D02*
G03*
X503229Y271229I0J-23900D01*
G01*
X485209Y263730D02*
G03*
X503170Y271169I0J25400D01*
G01*
X410061Y330190D02*
G03*
X428021Y322750I17960J17960D01*
G01*
X478197Y263969D02*
G03*
X477938Y264024I-656J-2454D01*
G01*
X479980Y263730D02*
G03*
X480468Y263748I0J6770D01*
G01*
X478197Y263969D02*
G03*
X479980Y263730I1783J6531D01*
G01*
X463831Y271169D02*
G03*
X477938Y264024I17960J17960D01*
G01*
X480741Y263752D02*
G03*
X480468Y263748I-99J-2538D01*
G01*
X445144Y289856D02*
G03*
X428500Y296750I-16644J-16644D01*
G01*
X441250Y197592D02*
X441480Y197822D01*
X445072D02*
X454270Y207020D01*
Y207270D02*
X457500Y210500D01*
X441250Y197250D02*
Y197592D01*
X441480Y197822D02*
X445072D01*
X454270Y207020D02*
Y207270D01*
X457500Y210500D02*
X457750D01*
X487500Y322750D02*
X498250D01*
X503000Y318000D01*
X345946Y348189D02*
X387994Y306141D01*
Y306036D02*
Y306141D01*
X330939Y378060D02*
X335434Y373566D01*
X149000Y345500D02*
X184058D01*
X199750Y339000D02*
X260918Y277832D01*
X278879Y270392D02*
X377017D01*
X336000Y340750D02*
X351890Y324860D01*
X359329Y303001D02*
Y306899D01*
X355902Y285221D02*
Y286577D01*
X334939Y318060D02*
X348463Y304537D01*
X312750Y325500D02*
X316979D01*
X312750Y345500D02*
X324533D01*
X370000Y285000D02*
Y306479D01*
X327687Y359313D02*
X362561Y324440D01*
X312750Y385500D02*
X312979D01*
X347500Y368416D02*
Y370229D01*
X329821Y398429D02*
X340061Y388190D01*
X354939Y350455D02*
X394955Y310439D01*
X415235Y290250D02*
X428500D01*
X393875Y277375D02*
X400750Y284250D01*
X428250Y303000D02*
X428500Y303250D01*
X412916Y303000D02*
X428250D01*
X439250Y309750D02*
X443131Y305869D01*
X428500Y309750D02*
X439250D01*
X449939Y336689D02*
X464310Y351060D01*
X431979Y329250D02*
X432729D01*
X428500D02*
X431979D01*
X471750Y369021D02*
Y374250D01*
X442500Y349750D02*
Y351028D01*
X443131Y305869D02*
X443269D01*
X500196Y335770D02*
X507488D01*
X519936Y330614D02*
X525750Y324800D01*
X525239Y349689D02*
X525750Y350200D01*
X487500Y342250D02*
X507279D01*
X485209Y263730D02*
X485209D01*
X503170Y271169D02*
X503229Y271229D01*
X481791Y263730D02*
X485209D01*
X514399Y274000D02*
X525750D01*
X487500Y335750D02*
X500176D01*
X500196Y335770D01*
X410000Y330250D02*
X410061Y330190D01*
X428021Y322750D02*
X428500D01*
X445144Y289856D02*
X463831Y271169D01*
X487500Y290250D02*
X487875Y290625D01*
X500233D02*
X500621Y291013D01*
X499391Y281516D02*
X500869D01*
X497533Y283375D02*
X499391Y281516D01*
X487875Y290625D02*
X500233D01*
X499106Y301127D02*
X500583D01*
X495103Y297125D02*
X499106Y301127D01*
X487875Y283375D02*
X497533D01*
X487875Y297125D02*
X495103D01*
X487500Y296750D02*
X487875Y297125D01*
X487500Y283750D02*
X487875Y283375D01*
X428462Y342212D02*
X428500Y342250D01*
X487625Y329125D02*
X502875D01*
X487500Y329250D02*
X487625Y329125D01*
X502875D02*
X503000Y329000D01*
X482750Y309750D02*
X487500D01*
D50*
X510625Y137875D02*
D03*
D51*
X423115Y146844D02*
D03*
D52*
X262750Y145250D02*
D03*
Y95250D02*
D03*
X525750Y248600D02*
D03*
Y274000D02*
D03*
Y299400D02*
D03*
Y324800D02*
D03*
Y350200D02*
D03*
X114000Y269400D02*
D03*
Y244000D02*
D03*
Y218600D02*
D03*
Y193200D02*
D03*
Y167800D02*
D03*
Y142400D02*
D03*
Y117000D02*
D03*
D53*
X526250Y138550D02*
D03*
D54*
Y163950D02*
D03*
D55*
X370840Y241300D02*
D03*
X170180D02*
D03*
D56*
X433732Y154560D02*
D03*
X11524Y339800D02*
D03*
Y302300D02*
D03*
Y327300D02*
D03*
Y314800D02*
D03*
Y264800D02*
D03*
Y289800D02*
D03*
Y277300D02*
D03*
Y227300D02*
D03*
Y252300D02*
D03*
Y239800D02*
D03*
Y189800D02*
D03*
Y214800D02*
D03*
Y152300D02*
D03*
Y177300D02*
D03*
Y164800D02*
D03*
Y139800D02*
D03*
Y352300D02*
D03*
Y202300D02*
D03*
X81880Y339557D02*
D03*
Y252057D02*
D03*
Y202057D02*
D03*
Y352057D02*
D03*
Y289557D02*
D03*
Y327057D02*
D03*
Y177057D02*
D03*
Y139557D02*
D03*
Y239557D02*
D03*
Y214557D02*
D03*
Y277057D02*
D03*
Y264557D02*
D03*
Y227057D02*
D03*
Y152057D02*
D03*
Y189557D02*
D03*
Y164557D02*
D03*
Y314557D02*
D03*
Y302057D02*
D03*
X11566Y126597D02*
D03*
X81750Y114000D02*
D03*
X81724Y126829D02*
D03*
X399658Y164536D02*
D03*
X420250Y109500D02*
D03*
X384500Y96500D02*
D03*
X473000Y316750D02*
D03*
X503000Y318000D02*
D03*
X400750Y315750D02*
D03*
X387994Y306036D02*
D03*
X371598Y350117D02*
D03*
X465241Y280938D02*
D03*
X189785Y143755D02*
D03*
X273596Y240564D02*
D03*
X456458Y163850D02*
D03*
X355902Y285221D02*
D03*
X359329Y303001D02*
D03*
X375201Y207267D02*
D03*
X428500Y233000D02*
D03*
X467326Y111860D02*
D03*
X10894Y377243D02*
D03*
Y364743D02*
D03*
X81250Y364500D02*
D03*
X370000Y285000D02*
D03*
X471750Y374250D02*
D03*
X442500Y351028D02*
D03*
X443269Y305869D02*
D03*
X456250Y306000D02*
D03*
X494750Y231250D02*
D03*
X108427Y373908D02*
D03*
X100539Y446344D02*
D03*
X500869Y281516D02*
D03*
X500621Y291013D02*
D03*
X467349Y143231D02*
D03*
X121265Y461444D02*
D03*
X385750Y281750D02*
D03*
X149677Y465962D02*
D03*
X118592Y397687D02*
D03*
X173751Y448877D02*
D03*
X499465Y370374D02*
D03*
X463951Y245944D02*
D03*
X427500Y258500D02*
D03*
X516000Y110250D02*
D03*
X450250Y88750D02*
D03*
X496250Y181000D02*
D03*
X125250Y424500D02*
D03*
X500583Y301127D02*
D03*
X377419Y164853D02*
D03*
X525750Y188500D02*
D03*
X173750Y425936D02*
D03*
X371750Y389250D02*
D03*
X503000Y329000D02*
D03*
M02*
