G04*
G04 #@! TF.GenerationSoftware,Altium Limited,Altium Designer,21.0.8 (223)*
G04*
G04 Layer_Color=16711935*
%FSLAX44Y44*%
%MOMM*%
G71*
G04*
G04 #@! TF.SameCoordinates,3C593E1E-8741-496A-A554-97E108CC9687*
G04*
G04*
G04 #@! TF.FilePolarity,Negative*
G04*
G01*
G75*
%ADD25R,10.9405X40.5913*%
%ADD30R,1.1532X1.1032*%
%ADD41C,2.2032*%
G04:AMPARAMS|DCode=42|XSize=2.2352mm|YSize=2.2352mm|CornerRadius=0.6096mm|HoleSize=0mm|Usage=FLASHONLY|Rotation=180.000|XOffset=0mm|YOffset=0mm|HoleType=Round|Shape=RoundedRectangle|*
%AMROUNDEDRECTD42*
21,1,2.2352,1.0160,0,0,180.0*
21,1,1.0160,2.2352,0,0,180.0*
1,1,1.2192,-0.5080,0.5080*
1,1,1.2192,0.5080,0.5080*
1,1,1.2192,0.5080,-0.5080*
1,1,1.2192,-0.5080,-0.5080*
%
%ADD42ROUNDEDRECTD42*%
%ADD43C,2.2352*%
%ADD44C,5.2032*%
%ADD45C,1.0032*%
%ADD60R,1.2032X0.8032*%
%ADD61R,1.5032X2.1032*%
D25*
X38297Y271293D02*
D03*
D30*
X436750Y146006D02*
D03*
X451250D02*
D03*
X451250Y133000D02*
D03*
X436750D02*
D03*
X415250Y315750D02*
D03*
X429750D02*
D03*
X485250Y306000D02*
D03*
X470750Y306000D02*
D03*
D41*
X262750Y145250D02*
D03*
Y95250D02*
D03*
X525750Y248600D02*
D03*
Y274000D02*
D03*
Y299400D02*
D03*
Y324800D02*
D03*
Y350200D02*
D03*
X114000Y269400D02*
D03*
Y244000D02*
D03*
Y218600D02*
D03*
Y193200D02*
D03*
Y167800D02*
D03*
Y142400D02*
D03*
Y117000D02*
D03*
D42*
X526250Y138550D02*
D03*
D43*
Y163950D02*
D03*
D44*
X370840Y241300D02*
D03*
X170180D02*
D03*
D45*
X399658Y164536D02*
D03*
X384500Y96500D02*
D03*
D60*
X377318Y137435D02*
D03*
X401318Y127935D02*
D03*
Y146935D02*
D03*
D61*
X457500Y378500D02*
D03*
X401250D02*
D03*
X401250Y344000D02*
D03*
X457500Y344000D02*
D03*
M02*
